<?xml version="1.0" encoding="UTF-8"?>
<svg xmlns="http://www.w3.org/2000/svg" viewBox="0 0 930 1000" role="img" aria-labelledby="title">
  <title>Cd Estudio en color vino</title>
  <path d="M 477 914 L 477 916 L 478 917 L 478 919 L 479 920 L 479 922 L 482 924 L 482 926 L 483 927 L 483 936 L 484 937 L 484 953 L 485 954 L 486 953 L 490 953 L 491 952 L 492 952 L 492 935 L 493 934 L 493 927 L 494 926 L 494 924 L 498 920 L 498 915 L 497 914 Z M 450 911 L 440 911 L 439 912 L 436 912 L 433 915 L 433 917 L 432 918 L 432 930 L 436 934 L 436 935 L 439 935 L 440 936 L 440 938 L 446 938 L 448 940 L 448 941 L 449 942 L 449 947 L 448 948 L 448 951 L 445 954 L 434 954 L 434 958 L 437 958 L 438 957 L 441 957 L 442 956 L 448 956 L 449 955 L 455 955 L 456 954 L 457 954 L 457 953 L 458 952 L 458 950 L 459 949 L 459 946 L 460 945 L 460 943 L 461 942 L 461 939 L 460 938 L 459 938 L 457 936 L 456 936 L 453 933 L 452 933 L 449 931 L 449 921 L 451 919 L 452 919 L 453 918 L 455 918 L 454 917 L 454 914 L 452 912 L 451 912 Z M 404 911 L 401 911 L 400 912 L 397 912 L 396 913 L 395 913 L 395 914 L 394 915 L 393 915 L 392 914 L 392 913 L 392 924 L 391 925 L 391 930 L 390 931 L 390 936 L 389 937 L 389 940 L 388 941 L 388 945 L 387 946 L 387 951 L 386 952 L 386 954 L 411 954 L 411 952 L 412 951 L 412 949 L 409 949 L 408 948 L 402 948 L 400 946 L 400 939 L 401 938 L 403 938 L 404 937 L 407 937 L 408 936 L 409 936 L 407 933 L 407 931 L 406 930 L 405 930 L 403 928 L 403 920 L 404 919 Z M 549 905 L 541 905 L 541 944 L 539 946 L 535 946 L 534 947 L 530 947 L 529 946 L 529 943 L 527 940 L 527 937 L 526 936 L 526 932 L 525 931 L 525 929 L 524 928 L 524 924 L 523 923 L 523 920 L 522 919 L 522 915 L 521 915 L 520 914 L 515 914 L 515 926 L 516 927 L 516 945 L 517 946 L 517 948 L 519 950 L 520 950 L 522 952 L 523 952 L 524 953 L 524 954 L 548 954 L 550 952 L 550 951 L 551 950 L 552 950 L 556 945 L 556 942 L 557 941 L 557 928 L 556 927 L 556 921 L 555 920 L 555 918 L 554 917 L 554 914 L 553 913 L 553 912 L 552 911 L 552 910 Z M 570 902 L 569 903 L 569 917 L 570 918 L 570 922 L 571 923 L 571 925 L 572 926 L 572 929 L 573 930 L 573 933 L 575 936 L 575 938 L 576 939 L 577 942 L 580 942 L 581 941 L 587 941 L 588 940 L 589 940 L 589 937 L 591 935 L 592 935 L 592 934 L 589 934 L 588 933 L 586 933 L 584 931 L 584 929 L 582 927 L 582 923 L 580 920 L 580 917 L 579 916 L 579 913 L 578 912 L 578 908 L 577 907 L 577 903 L 576 902 Z M 588 900 L 588 901 L 589 901 L 591 903 L 592 903 L 596 907 L 596 908 L 598 911 L 598 914 L 599 915 L 599 928 L 600 929 L 600 932 L 602 932 L 603 931 L 605 931 L 606 930 L 609 930 L 609 927 L 610 926 L 610 914 L 609 913 L 609 911 L 608 910 L 607 907 L 603 903 L 603 902 L 601 900 Z M 320 892 L 317 892 L 317 898 L 318 899 L 318 901 L 319 902 L 319 911 L 318 912 L 317 915 L 314 918 L 314 919 L 311 922 L 310 922 L 308 924 L 307 924 L 307 928 L 319 928 L 319 927 L 321 925 L 321 924 L 323 922 L 323 921 L 325 919 L 325 918 L 326 917 L 326 913 L 327 912 L 327 899 Z M 307 889 L 301 889 L 300 890 L 297 890 L 295 892 L 295 893 L 294 894 L 294 896 L 293 897 L 293 898 L 291 900 L 291 902 L 290 903 L 290 906 L 288 909 L 288 924 L 290 926 L 301 926 L 301 905 L 302 904 L 302 902 L 303 901 L 303 898 L 305 895 L 305 893 L 306 892 Z M 618 887 L 618 901 L 619 902 L 619 905 L 620 906 L 620 908 L 621 909 L 621 910 L 622 911 L 622 912 L 623 913 L 623 914 L 624 915 L 624 916 L 625 917 L 625 918 L 626 919 L 627 922 L 629 924 L 629 925 L 630 926 L 631 926 L 632 925 L 634 925 L 635 924 L 637 924 L 637 919 L 636 918 L 636 904 L 635 903 L 635 901 L 634 901 L 632 899 L 630 899 L 629 898 L 629 895 L 628 894 L 628 892 L 627 891 L 627 890 L 624 887 Z M 646 878 L 646 894 L 647 895 L 647 896 L 649 898 L 649 899 L 660 910 L 672 910 L 659 897 L 659 896 L 656 891 L 656 889 L 655 888 L 655 886 L 654 885 L 654 875 L 652 875 L 651 876 L 650 876 L 649 877 Z M 656 868 L 655 871 L 656 871 L 657 872 L 662 872 L 663 873 L 670 873 L 671 874 L 671 875 L 673 877 L 673 878 L 676 881 L 677 884 L 678 885 L 681 885 L 683 887 L 683 900 L 687 900 L 688 899 L 688 881 L 687 880 L 686 877 L 682 873 L 682 872 L 678 868 Z M 257 860 L 236 860 L 234 862 L 233 862 L 229 866 L 229 867 L 227 869 L 227 870 L 226 871 L 226 877 L 225 878 L 225 882 L 226 883 L 226 892 L 237 903 L 244 903 L 244 901 L 242 898 L 242 896 L 241 895 L 241 894 L 239 892 L 239 873 L 242 870 L 243 870 L 244 869 L 264 869 L 264 868 L 263 867 L 263 866 L 262 865 L 261 862 L 260 862 Z M 413 181 L 391 187 L 380 194 L 370 193 L 365 195 L 369 195 L 370 197 L 364 207 L 355 208 L 344 217 L 325 221 L 315 225 L 305 238 L 293 249 L 289 258 L 286 260 L 285 337 L 283 349 L 271 349 L 266 347 L 258 337 L 246 326 L 246 323 L 238 317 L 206 317 L 204 318 L 204 321 L 196 327 L 197 334 L 194 336 L 192 343 L 190 404 L 187 413 L 187 436 L 185 448 L 184 478 L 181 501 L 173 532 L 173 580 L 189 580 L 216 552 L 231 539 L 248 528 L 254 521 L 267 521 L 270 524 L 269 541 L 264 556 L 265 561 L 252 603 L 244 646 L 241 702 L 242 708 L 249 712 L 287 711 L 294 716 L 314 718 L 314 714 L 318 712 L 319 706 L 352 706 L 353 710 L 356 711 L 377 712 L 379 708 L 387 708 L 388 703 L 392 702 L 393 704 L 392 648 L 388 647 L 386 641 L 385 628 L 382 618 L 383 607 L 380 597 L 380 531 L 389 525 L 399 523 L 400 526 L 434 537 L 438 541 L 439 545 L 449 552 L 447 517 L 447 457 L 445 446 L 444 403 L 442 386 L 441 330 L 429 314 L 405 314 L 405 318 L 398 321 L 390 329 L 373 327 L 373 294 L 376 282 L 376 261 L 379 253 L 379 248 L 385 244 L 385 238 L 391 236 L 397 224 L 401 210 L 409 199 L 409 190 Z M 326 261 L 327 261 L 328 260 L 338 260 L 339 261 L 342 261 L 345 263 L 345 279 L 343 281 L 341 281 L 340 280 L 327 280 L 325 278 L 325 277 L 324 276 L 324 263 Z M 547 41 L 483 43 L 478 63 L 459 64 L 457 47 L 357 55 L 277 81 L 266 91 L 243 99 L 239 108 L 217 118 L 215 126 L 195 132 L 185 146 L 177 144 L 160 165 L 112 201 L 78 285 L 55 319 L 41 362 L 45 530 L 52 593 L 72 625 L 98 653 L 104 679 L 108 680 L 107 697 L 124 721 L 129 722 L 144 752 L 150 754 L 181 794 L 216 823 L 243 839 L 280 849 L 287 856 L 375 879 L 389 879 L 413 888 L 427 884 L 427 815 L 329 796 L 296 781 L 293 775 L 278 774 L 275 767 L 249 752 L 225 727 L 221 712 L 210 705 L 187 666 L 171 629 L 159 615 L 151 592 L 142 583 L 128 543 L 132 536 L 121 474 L 120 415 L 143 327 L 165 299 L 170 276 L 176 273 L 191 250 L 249 185 L 289 154 L 366 122 L 394 121 L 431 113 L 438 107 L 468 107 L 473 112 L 475 450 L 470 485 L 463 665 L 464 880 L 472 888 L 529 888 L 564 876 L 601 856 L 624 850 L 627 852 L 623 856 L 627 856 L 637 844 L 658 835 L 678 832 L 705 816 L 809 713 L 825 686 L 829 669 L 842 658 L 867 607 L 878 595 L 886 567 L 885 390 L 885 396 L 881 395 L 878 369 L 872 364 L 858 291 L 847 284 L 834 258 L 835 249 L 783 179 L 779 180 L 746 141 L 723 128 L 718 121 L 720 118 L 704 116 L 666 97 L 610 62 L 574 47 Z M 574 118 L 586 124 L 588 129 L 597 130 L 611 140 L 647 157 L 651 162 L 662 165 L 665 172 L 678 173 L 681 175 L 681 178 L 687 179 L 692 187 L 708 202 L 727 230 L 762 265 L 772 286 L 775 305 L 793 338 L 796 352 L 802 367 L 806 371 L 816 394 L 819 409 L 819 476 L 814 478 L 814 494 L 809 519 L 800 541 L 796 544 L 796 563 L 787 593 L 782 595 L 782 605 L 780 612 L 774 622 L 759 636 L 750 655 L 738 668 L 728 674 L 728 677 L 717 688 L 715 693 L 703 707 L 703 716 L 696 723 L 691 732 L 686 735 L 684 740 L 673 740 L 660 751 L 653 752 L 651 757 L 638 758 L 624 768 L 621 772 L 616 772 L 570 789 L 555 790 L 548 786 L 544 773 L 542 757 L 545 579 L 544 565 L 542 559 L 540 558 L 540 522 L 548 520 L 551 517 L 613 516 L 661 513 L 691 507 L 769 507 L 775 498 L 774 440 L 765 430 L 625 426 L 607 423 L 557 422 L 550 419 L 550 279 L 548 264 L 550 123 L 552 119 Z" fill="#8B2F68" fill-rule="evenodd" clip-rule="evenodd"/>
</svg>
