<?xml version="1.0" encoding="UTF-8"?>
<svg xmlns="http://www.w3.org/2000/svg" viewBox="0 0 1000 589" role="img" aria-labelledby="title">
  <title>Fundacion Prodis en color vino</title>
  <path d="M 740 151 L 739 152 L 737 152 L 732 157 L 732 158 L 731 159 L 731 308 L 738 315 L 767 315 L 772 310 L 772 156 L 767 153 L 765 153 L 764 152 L 762 152 L 761 151 L 749 151 L 748 152 L 747 152 L 746 151 L 745 151 L 744 152 L 741 152 Z M 239 144 L 238 145 L 237 145 L 233 149 L 232 149 L 230 151 L 229 151 L 229 308 L 235 308 L 237 310 L 237 311 L 239 314 L 239 316 L 240 317 L 240 319 L 270 319 L 271 320 L 274 320 L 275 319 L 276 319 L 276 316 L 278 314 L 278 313 L 281 310 L 281 309 L 282 308 L 286 308 L 286 238 L 285 237 L 285 214 L 286 213 L 286 209 L 289 206 L 289 205 L 294 200 L 295 200 L 297 198 L 298 198 L 301 196 L 303 196 L 306 194 L 312 194 L 313 193 L 315 193 L 316 192 L 319 192 L 320 191 L 321 191 L 323 193 L 325 191 L 326 191 L 329 188 L 330 188 L 333 185 L 334 185 L 335 184 L 335 154 L 334 153 L 332 153 L 331 152 L 330 152 L 327 150 L 325 150 L 324 149 L 315 149 L 314 148 L 281 148 L 279 146 L 279 144 Z M 858 140 L 848 145 L 845 145 L 844 146 L 841 146 L 840 147 L 835 147 L 827 151 L 811 166 L 805 176 L 805 181 L 802 186 L 802 195 L 801 196 L 801 203 L 802 204 L 802 215 L 803 216 L 803 218 L 806 225 L 807 225 L 816 232 L 824 235 L 825 236 L 825 238 L 831 244 L 833 245 L 838 245 L 839 246 L 842 246 L 843 247 L 847 247 L 850 250 L 853 255 L 880 255 L 881 256 L 881 259 L 882 260 L 890 263 L 892 265 L 892 266 L 894 266 L 895 267 L 894 269 L 894 272 L 893 273 L 893 276 L 892 278 L 887 282 L 884 282 L 883 283 L 867 283 L 866 282 L 866 279 L 864 279 L 863 278 L 853 278 L 852 277 L 843 276 L 833 269 L 830 269 L 829 268 L 819 268 L 818 269 L 812 269 L 806 274 L 805 274 L 805 275 L 800 281 L 800 284 L 799 285 L 800 296 L 801 296 L 802 297 L 802 299 L 814 310 L 814 312 L 816 314 L 816 315 L 821 320 L 825 322 L 828 322 L 829 323 L 838 323 L 846 329 L 848 329 L 851 331 L 854 331 L 855 332 L 876 332 L 877 331 L 902 331 L 905 329 L 907 329 L 910 326 L 911 326 L 917 320 L 918 318 L 922 317 L 923 316 L 925 316 L 926 315 L 929 315 L 931 313 L 936 311 L 946 301 L 946 298 L 947 297 L 947 295 L 950 288 L 950 281 L 951 280 L 951 275 L 952 274 L 952 269 L 953 268 L 953 256 L 954 254 L 956 253 L 956 237 L 958 233 L 957 234 L 944 234 L 938 231 L 930 224 L 927 223 L 925 219 L 921 220 L 919 216 L 917 215 L 914 215 L 913 214 L 907 214 L 903 212 L 900 212 L 899 211 L 891 209 L 885 206 L 882 206 L 875 203 L 871 203 L 870 202 L 867 202 L 866 201 L 861 200 L 860 199 L 860 197 L 861 196 L 861 190 L 868 183 L 891 183 L 899 191 L 927 191 L 932 186 L 936 188 L 941 185 L 945 181 L 945 161 L 942 158 L 939 157 L 937 155 L 935 155 L 933 153 L 933 147 L 929 147 L 928 146 L 924 146 L 923 145 L 917 145 L 916 144 L 903 144 L 902 143 L 895 143 L 894 142 L 894 140 L 872 140 L 871 139 L 864 139 L 863 140 Z M 449 139 L 413 140 L 409 143 L 389 147 L 367 160 L 358 169 L 352 178 L 352 184 L 346 194 L 341 213 L 341 244 L 343 259 L 348 276 L 348 281 L 346 282 L 346 284 L 350 291 L 364 305 L 375 309 L 379 314 L 387 319 L 400 321 L 402 323 L 401 330 L 398 335 L 388 341 L 375 341 L 363 345 L 360 352 L 344 355 L 342 360 L 337 360 L 331 364 L 303 390 L 303 409 L 309 410 L 310 414 L 316 420 L 322 421 L 331 419 L 338 414 L 338 411 L 356 393 L 360 394 L 384 385 L 391 385 L 388 403 L 388 415 L 384 435 L 371 448 L 371 453 L 364 466 L 355 474 L 348 488 L 340 496 L 340 518 L 350 528 L 356 532 L 362 533 L 370 543 L 375 545 L 396 547 L 393 534 L 389 526 L 381 516 L 381 503 L 384 501 L 393 487 L 400 484 L 407 475 L 415 469 L 423 470 L 423 483 L 431 485 L 432 490 L 438 491 L 440 498 L 443 501 L 453 506 L 465 517 L 476 523 L 492 536 L 504 537 L 514 536 L 523 533 L 532 522 L 533 510 L 524 500 L 505 500 L 504 502 L 484 500 L 482 498 L 481 492 L 474 481 L 472 474 L 461 462 L 455 452 L 454 391 L 452 388 L 453 384 L 497 385 L 516 388 L 525 391 L 549 391 L 554 382 L 555 370 L 552 361 L 546 355 L 537 352 L 530 352 L 529 350 L 532 349 L 528 349 L 527 345 L 516 341 L 438 339 L 434 335 L 435 323 L 440 323 L 470 315 L 486 306 L 491 305 L 505 294 L 507 294 L 512 286 L 518 264 L 522 260 L 526 245 L 526 215 L 524 204 L 522 199 L 516 196 L 516 189 L 512 181 L 506 180 L 507 171 L 496 158 L 489 155 L 481 154 L 478 149 L 460 145 L 455 141 Z M 428 187 L 435 187 L 436 188 L 441 188 L 442 189 L 446 189 L 447 190 L 449 190 L 450 191 L 452 191 L 453 192 L 454 192 L 456 194 L 456 195 L 457 196 L 458 199 L 461 202 L 461 203 L 466 208 L 467 208 L 468 209 L 468 211 L 469 212 L 469 235 L 468 236 L 468 247 L 467 248 L 467 251 L 466 252 L 466 256 L 465 257 L 465 259 L 463 261 L 463 263 L 462 264 L 461 267 L 455 273 L 454 273 L 452 275 L 451 275 L 450 276 L 448 276 L 448 281 L 447 282 L 445 282 L 444 283 L 441 283 L 440 284 L 433 284 L 432 283 L 427 283 L 426 282 L 421 282 L 418 280 L 416 280 L 414 278 L 414 277 L 408 275 L 405 272 L 404 272 L 402 270 L 402 269 L 401 269 L 400 268 L 400 267 L 398 267 L 397 266 L 397 257 L 394 257 L 393 256 L 393 252 L 392 251 L 392 213 L 393 212 L 393 209 L 394 208 L 395 205 L 397 203 L 399 203 L 404 198 L 405 198 L 409 194 L 411 194 L 413 192 L 414 192 L 415 191 L 417 191 L 419 189 L 423 189 L 424 188 L 427 188 Z M 192 133 L 190 133 L 186 131 L 183 132 L 180 135 L 180 143 L 178 147 L 173 147 L 172 146 L 169 146 L 168 145 L 164 145 L 163 144 L 155 144 L 154 143 L 147 143 L 146 142 L 134 142 L 133 143 L 129 143 L 128 144 L 125 144 L 121 147 L 102 147 L 101 148 L 82 148 L 81 149 L 69 149 L 68 148 L 62 148 L 61 147 L 54 147 L 52 152 L 50 154 L 48 154 L 47 156 L 45 157 L 45 158 L 43 160 L 43 162 L 42 163 L 42 172 L 41 173 L 42 175 L 42 341 L 43 342 L 43 363 L 45 365 L 51 365 L 52 366 L 52 370 L 60 378 L 62 378 L 63 379 L 71 379 L 72 378 L 79 378 L 80 377 L 89 377 L 90 376 L 94 376 L 96 378 L 96 380 L 98 384 L 100 385 L 102 385 L 102 376 L 98 374 L 98 356 L 99 355 L 99 342 L 97 340 L 97 329 L 99 327 L 100 327 L 100 326 L 102 324 L 104 323 L 116 323 L 117 324 L 119 324 L 121 325 L 126 329 L 128 329 L 134 332 L 142 332 L 143 331 L 148 331 L 150 330 L 154 326 L 162 326 L 162 324 L 164 322 L 166 322 L 170 320 L 173 320 L 177 318 L 179 316 L 180 316 L 183 313 L 185 312 L 188 312 L 196 304 L 197 304 L 198 302 L 199 302 L 199 301 L 201 299 L 200 298 L 200 296 L 204 292 L 209 282 L 211 280 L 217 280 L 217 205 L 216 204 L 216 199 L 215 198 L 215 194 L 214 193 L 214 189 L 212 186 L 209 186 L 208 185 L 208 182 L 209 181 L 209 177 L 210 176 L 210 173 L 206 171 L 203 171 L 200 168 L 200 166 L 197 161 L 197 159 L 196 158 L 193 158 L 192 157 L 192 154 L 188 154 L 187 153 L 187 150 L 189 148 L 191 148 L 192 147 L 196 147 L 196 145 L 195 144 L 195 142 L 194 141 L 194 138 L 192 135 Z M 121 183 L 139 183 L 140 184 L 140 188 L 141 188 L 142 189 L 142 190 L 139 193 L 126 193 L 126 197 L 128 197 L 129 196 L 133 196 L 134 195 L 138 195 L 139 194 L 146 194 L 147 193 L 153 193 L 154 194 L 154 196 L 155 197 L 155 202 L 154 203 L 149 203 L 149 208 L 150 208 L 155 205 L 160 205 L 161 204 L 162 204 L 163 205 L 163 261 L 161 263 L 160 263 L 159 264 L 157 264 L 155 266 L 155 271 L 156 272 L 156 276 L 151 281 L 150 281 L 147 284 L 146 284 L 145 285 L 143 285 L 142 286 L 140 286 L 139 287 L 128 287 L 127 286 L 124 286 L 123 285 L 122 285 L 121 284 L 120 284 L 119 283 L 118 283 L 117 282 L 114 281 L 101 268 L 101 262 L 102 261 L 102 259 L 98 254 L 98 252 L 97 251 L 97 219 L 98 218 L 97 217 L 97 216 L 98 215 L 98 211 L 103 208 L 103 207 L 104 206 L 104 205 L 105 204 L 106 201 L 108 199 L 108 198 L 117 189 L 118 186 Z M 703 99 L 698 97 L 694 94 L 669 94 L 668 95 L 668 98 L 666 100 L 666 101 L 663 105 L 663 106 L 661 108 L 658 108 L 657 109 L 657 147 L 653 151 L 596 151 L 595 152 L 592 152 L 591 153 L 587 153 L 586 154 L 584 154 L 577 158 L 575 158 L 574 159 L 573 159 L 571 161 L 568 161 L 564 164 L 560 164 L 559 165 L 558 165 L 557 166 L 558 169 L 556 171 L 556 173 L 553 176 L 553 177 L 545 184 L 545 186 L 542 190 L 540 196 L 539 197 L 534 197 L 540 197 L 540 196 L 541 195 L 542 195 L 543 196 L 543 200 L 541 202 L 538 202 L 535 205 L 535 254 L 536 255 L 536 267 L 539 272 L 539 277 L 540 278 L 540 281 L 541 282 L 542 289 L 543 290 L 544 290 L 546 293 L 546 296 L 547 297 L 547 301 L 548 302 L 548 304 L 549 305 L 549 308 L 555 308 L 556 309 L 556 312 L 557 312 L 558 313 L 561 313 L 562 314 L 564 314 L 566 316 L 566 323 L 580 323 L 581 324 L 582 324 L 587 329 L 635 329 L 640 323 L 678 323 L 679 322 L 700 322 L 701 321 L 706 321 L 706 320 L 707 319 L 707 316 L 708 315 L 708 109 L 707 108 L 707 104 Z M 641 190 L 642 191 L 642 196 L 643 197 L 643 198 L 645 200 L 645 201 L 648 204 L 648 206 L 649 207 L 649 208 L 651 210 L 651 214 L 652 215 L 652 236 L 653 237 L 653 264 L 654 265 L 654 268 L 653 269 L 653 270 L 651 272 L 651 273 L 649 275 L 649 276 L 643 282 L 643 283 L 639 287 L 612 287 L 611 286 L 607 286 L 604 284 L 602 284 L 600 282 L 600 278 L 599 277 L 599 275 L 597 272 L 597 270 L 596 269 L 596 268 L 594 265 L 594 263 L 592 260 L 592 256 L 591 255 L 591 252 L 590 251 L 590 247 L 589 246 L 589 221 L 590 220 L 590 216 L 591 215 L 591 212 L 592 211 L 592 207 L 594 204 L 594 199 L 597 196 L 598 196 L 601 194 L 604 194 L 605 193 L 608 193 L 609 192 L 613 192 L 614 191 L 635 191 L 636 190 Z M 727 94 L 727 126 L 772 126 L 773 125 L 773 124 L 775 122 L 775 121 L 777 119 L 777 112 L 778 111 L 778 104 L 779 103 L 779 95 L 778 94 L 775 94 L 774 93 L 772 93 L 771 92 L 768 91 L 765 88 L 765 85 L 748 85 L 747 86 L 741 86 L 740 87 L 738 87 L 737 88 L 736 88 L 730 94 Z M 455 62 L 455 98 L 456 99 L 462 99 L 463 100 L 466 100 L 466 62 Z M 334 62 L 333 63 L 333 65 L 332 66 L 332 77 L 333 78 L 333 79 L 330 81 L 328 81 L 327 82 L 324 82 L 323 83 L 323 100 L 324 101 L 325 100 L 331 100 L 332 99 L 347 99 L 353 105 L 354 105 L 355 104 L 359 104 L 360 103 L 362 103 L 362 89 L 360 87 L 359 87 L 355 83 L 352 82 L 349 79 L 349 77 L 348 76 L 348 73 L 347 72 L 347 69 L 345 66 L 345 63 L 344 62 Z M 186 60 L 186 102 L 194 102 L 194 86 L 197 84 L 201 84 L 202 85 L 204 85 L 212 94 L 212 95 L 214 97 L 214 99 L 215 100 L 216 100 L 217 101 L 222 101 L 223 102 L 230 102 L 230 60 L 226 60 L 225 61 L 221 61 L 220 62 L 218 62 L 218 63 L 217 64 L 217 71 L 216 72 L 216 75 L 215 76 L 204 76 L 203 75 L 203 70 L 195 62 L 194 62 L 193 61 L 191 61 L 190 60 Z M 117 60 L 116 61 L 116 81 L 115 82 L 115 93 L 116 94 L 116 95 L 118 97 L 118 98 L 119 99 L 120 102 L 122 104 L 123 107 L 129 107 L 130 106 L 137 106 L 138 105 L 147 105 L 149 103 L 149 102 L 150 101 L 150 100 L 151 99 L 151 98 L 152 97 L 152 96 L 155 91 L 155 60 L 142 60 L 142 91 L 141 92 L 133 92 L 132 91 L 132 83 L 131 82 L 131 75 L 130 74 L 130 62 L 128 60 Z M 617 57 L 608 57 L 606 59 L 605 59 L 605 75 L 604 76 L 602 76 L 601 75 L 598 75 L 597 74 L 594 74 L 585 65 L 584 65 L 583 64 L 583 60 L 581 60 L 580 59 L 577 59 L 576 58 L 572 58 L 570 60 L 570 102 L 572 104 L 577 104 L 578 103 L 581 103 L 582 102 L 583 102 L 583 86 L 584 85 L 586 85 L 588 87 L 589 87 L 592 90 L 592 92 L 593 93 L 593 95 L 594 96 L 594 98 L 595 99 L 595 104 L 596 105 L 598 105 L 599 106 L 602 106 L 603 107 L 619 107 L 620 106 L 620 62 Z M 398 57 L 396 59 L 395 59 L 389 65 L 389 66 L 387 68 L 387 69 L 385 72 L 385 93 L 386 94 L 386 96 L 391 101 L 394 102 L 396 104 L 398 104 L 399 105 L 401 105 L 402 106 L 415 106 L 416 105 L 424 105 L 424 100 L 423 99 L 423 96 L 422 95 L 422 94 L 416 94 L 415 93 L 410 93 L 409 92 L 402 92 L 401 91 L 401 82 L 400 81 L 400 75 L 399 74 L 399 72 L 400 71 L 424 71 L 424 59 L 422 57 Z M 260 57 L 257 60 L 257 102 L 258 103 L 259 103 L 260 104 L 262 104 L 263 105 L 280 105 L 281 104 L 285 104 L 298 91 L 298 72 L 297 71 L 296 71 L 294 69 L 293 69 L 292 68 L 289 67 L 287 65 L 287 64 L 286 63 L 286 61 L 284 59 L 284 58 L 283 57 Z M 67 55 L 65 57 L 64 57 L 64 104 L 76 104 L 76 93 L 77 92 L 77 91 L 78 90 L 79 87 L 81 85 L 83 85 L 83 78 L 82 77 L 82 75 L 79 72 L 79 71 L 82 69 L 84 69 L 85 68 L 87 68 L 87 57 L 86 57 L 83 55 Z M 525 41 L 517 41 L 517 43 L 516 44 L 516 46 L 515 47 L 515 49 L 514 50 L 514 52 L 513 53 L 513 54 L 512 55 L 510 55 L 509 56 L 506 56 L 505 57 L 504 57 L 496 65 L 496 66 L 494 68 L 494 72 L 493 73 L 493 77 L 492 78 L 492 87 L 494 90 L 494 94 L 496 94 L 498 96 L 498 97 L 500 99 L 500 102 L 505 107 L 527 107 L 529 105 L 533 105 L 547 91 L 547 72 L 545 70 L 544 70 L 543 69 L 542 69 L 541 68 L 538 67 L 536 64 L 536 62 L 535 61 L 535 60 L 532 60 L 531 59 L 528 59 L 527 58 L 525 58 L 523 56 L 523 55 L 524 54 L 524 45 L 525 44 Z M 503 83 L 504 82 L 504 80 L 505 79 L 505 77 L 506 76 L 507 73 L 509 71 L 529 71 L 533 75 L 533 89 L 531 91 L 530 91 L 525 94 L 510 94 L 508 92 L 508 88 L 507 87 L 505 87 L 503 85 Z" fill="#8B2F68" fill-rule="evenodd" clip-rule="evenodd"/>
</svg>
