<?xml version="1.0" encoding="UTF-8"?>
<svg xmlns="http://www.w3.org/2000/svg" viewBox="0 0 1000 427" role="img" aria-labelledby="title">
  <title>Madrid Salud en color vino</title>
  <path d="M 747 284 L 745 286 L 745 376 L 746 377 L 747 377 L 749 379 L 783 379 L 783 378 L 784 377 L 790 377 L 791 376 L 794 376 L 795 375 L 799 375 L 800 374 L 801 374 L 806 369 L 807 369 L 813 362 L 815 362 L 816 361 L 816 359 L 817 358 L 817 356 L 821 352 L 821 349 L 822 348 L 822 345 L 823 344 L 823 321 L 822 320 L 822 316 L 821 315 L 821 311 L 819 308 L 819 306 L 818 305 L 818 304 L 817 303 L 816 300 L 815 299 L 814 299 L 812 297 L 812 296 L 809 295 L 803 289 L 801 289 L 799 287 L 797 287 L 796 286 L 794 286 L 792 284 Z M 769 304 L 788 304 L 790 306 L 792 306 L 798 312 L 798 313 L 799 314 L 799 347 L 798 348 L 797 351 L 795 353 L 795 355 L 793 357 L 790 357 L 788 360 L 787 360 L 786 361 L 784 361 L 783 362 L 769 362 L 767 359 L 767 306 Z M 593 284 L 591 286 L 591 374 L 592 375 L 593 375 L 595 377 L 595 378 L 596 379 L 647 379 L 650 376 L 650 363 L 648 363 L 647 362 L 616 362 L 615 361 L 615 326 L 614 325 L 614 285 L 613 284 Z M 576 284 L 551 284 L 550 285 L 549 285 L 547 287 L 547 288 L 544 291 L 543 294 L 541 296 L 541 298 L 540 299 L 540 300 L 537 305 L 537 307 L 536 308 L 534 308 L 533 309 L 533 312 L 532 313 L 532 314 L 531 315 L 530 318 L 527 321 L 527 322 L 526 323 L 526 324 L 523 329 L 523 331 L 522 332 L 522 334 L 520 336 L 519 339 L 517 341 L 517 342 L 516 343 L 516 344 L 515 345 L 514 348 L 512 350 L 512 351 L 510 353 L 510 354 L 506 359 L 506 360 L 505 361 L 505 364 L 504 365 L 504 366 L 500 370 L 500 372 L 499 373 L 499 377 L 501 380 L 516 380 L 518 382 L 518 385 L 522 385 L 523 384 L 522 384 L 519 382 L 519 375 L 521 373 L 521 372 L 522 371 L 522 367 L 523 366 L 524 366 L 525 367 L 526 364 L 530 360 L 552 360 L 554 362 L 554 370 L 555 371 L 555 375 L 557 377 L 573 377 L 575 375 L 576 375 Z M 553 319 L 554 320 L 554 338 L 553 339 L 542 339 L 541 338 L 541 336 L 542 335 L 542 332 L 543 331 L 543 330 L 545 328 L 545 327 L 546 326 L 546 325 L 548 323 L 549 320 L 550 319 Z M 657 284 L 655 286 L 655 357 L 656 358 L 657 361 L 659 363 L 660 366 L 663 369 L 664 369 L 667 372 L 668 372 L 673 376 L 677 376 L 678 377 L 680 377 L 681 378 L 681 379 L 684 381 L 703 381 L 705 378 L 709 378 L 710 377 L 711 377 L 712 376 L 715 375 L 720 370 L 721 370 L 722 369 L 724 369 L 726 367 L 726 366 L 727 365 L 727 352 L 728 351 L 731 350 L 731 289 L 730 289 L 729 288 L 729 287 L 727 285 L 719 285 L 718 284 L 716 284 L 715 285 L 713 285 L 711 287 L 711 347 L 710 348 L 710 351 L 709 352 L 709 353 L 708 354 L 707 357 L 702 362 L 699 362 L 698 363 L 687 363 L 686 362 L 682 362 L 677 357 L 677 356 L 675 353 L 675 351 L 674 350 L 674 348 L 673 347 L 673 304 L 674 303 L 674 284 L 673 283 L 672 283 L 671 284 Z M 848 268 L 847 269 L 847 383 L 957 383 L 957 339 L 939 339 L 937 341 L 937 343 L 936 344 L 936 360 L 935 361 L 935 366 L 934 367 L 934 369 L 935 370 L 935 371 L 934 372 L 914 372 L 913 371 L 913 342 L 912 341 L 912 340 L 911 340 L 910 339 L 888 339 L 887 338 L 883 338 L 880 335 L 880 331 L 881 330 L 881 319 L 882 318 L 892 318 L 893 317 L 908 317 L 909 316 L 912 316 L 912 314 L 913 313 L 913 299 L 914 298 L 914 288 L 915 287 L 934 287 L 935 288 L 935 292 L 936 293 L 936 315 L 937 316 L 957 316 L 958 315 L 958 269 L 957 268 L 956 268 L 955 269 L 937 269 L 936 268 Z M 880 128 L 880 130 L 879 131 L 879 186 L 878 187 L 878 227 L 879 227 L 881 230 L 908 230 L 909 231 L 928 231 L 929 230 L 932 230 L 932 229 L 934 227 L 937 226 L 939 224 L 942 223 L 945 220 L 946 220 L 949 217 L 949 215 L 950 214 L 950 212 L 951 211 L 955 211 L 956 212 L 958 212 L 958 148 L 957 147 L 951 147 L 950 146 L 950 142 L 947 139 L 947 138 L 942 133 L 941 133 L 940 132 L 937 132 L 936 131 L 932 131 L 931 130 L 927 130 L 926 129 L 922 129 L 921 128 Z M 902 145 L 919 145 L 920 146 L 924 146 L 925 147 L 928 148 L 933 153 L 933 154 L 934 155 L 935 158 L 937 160 L 937 161 L 939 164 L 939 168 L 940 169 L 940 191 L 939 192 L 939 195 L 935 200 L 934 203 L 929 208 L 927 208 L 926 209 L 924 209 L 923 210 L 901 210 L 900 209 L 900 147 Z M 651 128 L 649 130 L 649 226 L 650 227 L 650 228 L 651 228 L 652 229 L 699 229 L 702 227 L 705 227 L 706 226 L 708 226 L 709 225 L 710 225 L 710 224 L 712 222 L 713 222 L 715 220 L 716 220 L 720 216 L 721 216 L 723 214 L 723 212 L 726 207 L 726 205 L 727 204 L 727 203 L 729 200 L 729 198 L 731 195 L 731 188 L 732 187 L 732 162 L 731 161 L 731 156 L 730 155 L 730 153 L 729 152 L 729 150 L 724 145 L 724 144 L 714 133 L 713 133 L 708 130 L 706 130 L 705 129 L 703 129 L 702 128 Z M 676 144 L 689 144 L 690 145 L 692 145 L 693 146 L 694 146 L 695 147 L 695 148 L 696 148 L 698 150 L 701 150 L 706 155 L 706 156 L 709 161 L 709 163 L 710 164 L 710 175 L 711 176 L 711 189 L 710 190 L 709 190 L 707 193 L 707 201 L 699 209 L 698 209 L 697 210 L 694 210 L 692 212 L 674 212 L 672 210 L 672 209 L 671 208 L 671 149 Z M 580 128 L 578 130 L 578 133 L 575 138 L 575 140 L 574 141 L 574 142 L 573 143 L 573 145 L 572 146 L 573 147 L 573 149 L 572 150 L 572 153 L 570 155 L 570 157 L 568 159 L 568 161 L 566 163 L 566 166 L 564 169 L 564 172 L 562 175 L 562 179 L 561 180 L 561 182 L 560 183 L 560 188 L 559 189 L 557 189 L 557 191 L 556 192 L 556 194 L 555 195 L 555 198 L 553 201 L 553 205 L 552 206 L 552 208 L 551 209 L 551 211 L 550 212 L 550 214 L 549 215 L 549 216 L 550 217 L 550 219 L 547 222 L 547 228 L 548 229 L 571 229 L 571 227 L 572 226 L 572 217 L 573 216 L 610 216 L 611 217 L 611 220 L 612 221 L 612 228 L 614 230 L 616 230 L 617 231 L 639 231 L 639 226 L 640 225 L 640 223 L 638 221 L 638 220 L 635 217 L 635 214 L 633 211 L 633 209 L 632 208 L 632 206 L 631 205 L 631 202 L 630 201 L 630 199 L 629 198 L 629 195 L 628 194 L 628 192 L 627 191 L 627 188 L 626 187 L 626 185 L 625 184 L 624 181 L 622 179 L 621 179 L 619 176 L 619 173 L 618 172 L 618 170 L 617 169 L 617 163 L 616 162 L 616 158 L 615 157 L 615 155 L 614 154 L 614 153 L 613 152 L 613 151 L 610 146 L 610 143 L 608 140 L 608 136 L 607 135 L 607 133 L 606 132 L 606 130 L 604 128 Z M 589 162 L 593 162 L 594 163 L 594 164 L 595 165 L 595 171 L 596 172 L 596 177 L 598 177 L 600 179 L 600 182 L 601 183 L 601 193 L 599 195 L 582 195 L 580 193 L 580 186 L 581 185 L 581 180 L 582 179 L 582 177 L 585 172 L 585 169 L 586 168 L 586 167 Z M 343 128 L 342 129 L 342 180 L 341 181 L 341 380 L 343 382 L 343 384 L 342 385 L 444 385 L 445 384 L 456 384 L 457 383 L 474 383 L 479 378 L 481 378 L 488 375 L 496 367 L 496 365 L 497 364 L 497 350 L 496 349 L 496 346 L 494 345 L 492 341 L 491 341 L 484 334 L 482 329 L 468 321 L 466 319 L 463 318 L 461 316 L 456 315 L 455 314 L 455 312 L 456 311 L 456 305 L 457 303 L 460 301 L 463 301 L 464 300 L 482 300 L 483 301 L 491 302 L 491 287 L 488 284 L 456 284 L 455 285 L 450 285 L 447 287 L 443 288 L 439 291 L 435 296 L 435 322 L 436 324 L 438 324 L 439 325 L 439 328 L 448 336 L 450 337 L 451 336 L 455 337 L 471 345 L 476 350 L 476 361 L 475 362 L 436 362 L 436 375 L 442 379 L 442 382 L 440 384 L 356 384 L 352 380 L 351 129 L 350 128 Z M 840 127 L 837 130 L 837 220 L 838 221 L 838 222 L 839 222 L 840 223 L 860 223 L 862 221 L 862 129 L 859 127 Z M 436 127 L 433 130 L 433 226 L 437 230 L 452 230 L 455 228 L 455 221 L 456 220 L 456 179 L 458 177 L 459 177 L 460 178 L 460 180 L 462 182 L 462 187 L 463 188 L 463 190 L 464 191 L 464 193 L 466 196 L 466 199 L 468 202 L 468 205 L 470 208 L 470 211 L 472 214 L 472 217 L 474 220 L 474 222 L 475 223 L 475 224 L 477 226 L 477 227 L 490 227 L 491 224 L 496 219 L 496 214 L 497 213 L 497 212 L 498 211 L 499 211 L 499 210 L 500 209 L 500 207 L 501 206 L 501 204 L 502 203 L 502 198 L 503 197 L 503 193 L 504 192 L 504 188 L 505 187 L 505 185 L 506 184 L 506 182 L 507 181 L 507 179 L 508 178 L 508 177 L 510 175 L 511 175 L 512 176 L 512 218 L 513 219 L 513 230 L 520 230 L 521 229 L 532 229 L 533 228 L 533 129 L 532 128 L 532 127 L 510 127 L 509 128 L 507 128 L 503 132 L 503 133 L 501 136 L 501 143 L 500 144 L 500 147 L 499 148 L 499 151 L 497 153 L 497 155 L 496 156 L 496 157 L 495 158 L 495 160 L 493 163 L 493 165 L 492 166 L 492 168 L 491 169 L 491 171 L 490 172 L 490 174 L 489 175 L 489 177 L 488 178 L 488 180 L 487 181 L 487 184 L 486 185 L 486 188 L 485 189 L 484 189 L 483 188 L 483 186 L 482 185 L 482 181 L 481 180 L 481 176 L 480 175 L 480 173 L 479 172 L 479 169 L 478 168 L 478 166 L 477 165 L 477 164 L 473 157 L 473 155 L 470 150 L 470 148 L 467 143 L 467 141 L 466 140 L 466 139 L 465 138 L 465 137 L 464 136 L 464 135 L 463 134 L 463 133 L 462 132 L 460 127 Z M 747 127 L 747 225 L 749 227 L 749 228 L 750 229 L 767 229 L 768 228 L 768 204 L 767 203 L 767 200 L 768 199 L 768 198 L 771 195 L 784 195 L 788 199 L 788 200 L 791 203 L 791 205 L 793 207 L 793 213 L 796 215 L 796 216 L 797 217 L 797 221 L 798 222 L 799 225 L 801 227 L 802 230 L 804 232 L 806 238 L 809 241 L 812 242 L 815 245 L 816 245 L 817 246 L 817 247 L 819 249 L 820 249 L 821 250 L 825 250 L 826 251 L 829 251 L 830 252 L 834 252 L 835 253 L 837 253 L 838 254 L 859 254 L 860 253 L 862 253 L 863 252 L 863 236 L 857 236 L 856 235 L 839 235 L 838 234 L 836 234 L 835 233 L 834 233 L 832 231 L 831 231 L 826 226 L 824 220 L 822 220 L 821 219 L 821 217 L 820 216 L 820 215 L 819 215 L 816 212 L 816 210 L 815 209 L 815 207 L 814 206 L 814 203 L 812 200 L 812 194 L 809 189 L 809 185 L 815 179 L 816 179 L 818 177 L 818 176 L 821 173 L 821 171 L 822 170 L 822 154 L 821 153 L 821 146 L 820 145 L 819 142 L 816 139 L 815 139 L 810 134 L 810 133 L 809 132 L 808 132 L 805 129 L 804 129 L 801 127 L 799 127 L 798 126 L 755 126 L 754 127 Z M 794 145 L 795 146 L 795 148 L 798 151 L 798 153 L 799 154 L 799 164 L 800 165 L 800 166 L 799 167 L 797 167 L 795 169 L 795 170 L 791 174 L 790 174 L 787 176 L 771 176 L 770 175 L 769 175 L 768 174 L 768 168 L 769 167 L 769 148 L 771 146 L 772 146 L 773 145 L 782 145 L 783 144 L 791 144 L 792 145 Z M 45 125 L 47 126 L 44 129 L 43 129 L 43 308 L 45 308 L 46 309 L 46 311 L 48 312 L 48 318 L 50 322 L 50 329 L 54 334 L 57 340 L 57 342 L 59 344 L 61 348 L 79 366 L 87 369 L 90 373 L 97 373 L 98 374 L 100 374 L 104 376 L 108 376 L 109 377 L 115 377 L 118 379 L 132 379 L 134 382 L 168 382 L 172 380 L 178 380 L 179 379 L 183 379 L 183 378 L 186 376 L 193 376 L 194 375 L 203 375 L 206 373 L 209 373 L 214 370 L 216 370 L 220 368 L 222 366 L 224 366 L 226 364 L 229 363 L 232 360 L 233 360 L 246 347 L 246 344 L 247 342 L 249 340 L 250 340 L 249 339 L 250 337 L 250 333 L 253 328 L 253 326 L 254 325 L 254 322 L 255 321 L 255 318 L 256 316 L 258 315 L 258 228 L 257 227 L 257 129 L 256 128 L 256 126 L 257 125 Z M 127 291 L 132 291 L 133 292 L 134 292 L 139 297 L 140 297 L 142 299 L 143 299 L 145 301 L 146 301 L 148 303 L 149 303 L 152 305 L 161 305 L 162 306 L 162 307 L 164 309 L 164 313 L 165 314 L 165 316 L 166 317 L 166 320 L 174 332 L 174 350 L 173 351 L 172 350 L 172 353 L 175 353 L 176 354 L 176 359 L 173 362 L 171 362 L 170 363 L 131 363 L 126 358 L 126 292 Z M 65 220 L 105 220 L 107 222 L 106 223 L 106 283 L 105 284 L 105 354 L 104 355 L 102 355 L 101 356 L 97 356 L 95 354 L 94 351 L 91 351 L 90 350 L 88 350 L 87 349 L 87 348 L 81 342 L 81 341 L 73 332 L 73 331 L 72 330 L 72 329 L 69 324 L 69 322 L 67 320 L 67 318 L 66 317 L 66 315 L 65 314 L 65 311 L 64 310 L 64 221 Z M 236 173 L 237 174 L 237 311 L 236 312 L 236 316 L 235 317 L 235 321 L 233 324 L 233 326 L 231 329 L 228 329 L 226 327 L 226 324 L 225 324 L 223 322 L 223 321 L 222 321 L 221 320 L 221 315 L 219 313 L 218 310 L 216 310 L 215 309 L 215 308 L 212 305 L 212 304 L 209 301 L 209 300 L 208 299 L 208 297 L 206 294 L 206 289 L 205 288 L 205 285 L 204 284 L 204 282 L 202 280 L 202 279 L 201 279 L 198 276 L 198 275 L 196 272 L 196 270 L 195 269 L 195 252 L 200 248 L 200 238 L 199 237 L 199 236 L 198 236 L 197 235 L 197 234 L 194 232 L 186 232 L 185 231 L 185 230 L 183 230 L 182 229 L 178 229 L 177 228 L 173 228 L 172 227 L 170 227 L 169 226 L 165 226 L 163 224 L 153 224 L 153 225 L 149 229 L 149 230 L 147 233 L 147 237 L 146 238 L 147 239 L 147 240 L 156 249 L 156 251 L 157 252 L 157 270 L 156 271 L 156 273 L 155 274 L 153 274 L 152 275 L 144 275 L 143 276 L 139 276 L 138 275 L 136 275 L 135 274 L 133 274 L 132 273 L 129 272 L 127 270 L 127 221 L 128 220 L 147 220 L 149 217 L 151 217 L 152 216 L 155 216 L 156 215 L 158 215 L 159 214 L 166 214 L 167 213 L 168 213 L 169 214 L 174 214 L 177 212 L 179 212 L 180 211 L 181 211 L 184 208 L 185 208 L 185 207 L 187 205 L 190 205 L 191 204 L 194 204 L 195 203 L 196 203 L 197 202 L 198 202 L 199 201 L 202 200 L 202 199 L 204 197 L 205 197 L 207 195 L 210 194 L 212 192 L 213 192 L 216 189 L 218 189 L 221 186 L 222 186 L 225 183 L 225 181 L 226 180 L 226 179 L 229 176 L 229 175 L 231 173 Z M 64 198 L 64 149 L 66 146 L 225 146 L 226 147 L 226 151 L 224 153 L 224 155 L 221 158 L 220 158 L 208 170 L 207 170 L 200 177 L 199 177 L 197 179 L 196 179 L 193 182 L 191 182 L 187 187 L 182 187 L 179 189 L 176 189 L 173 191 L 170 191 L 169 192 L 167 192 L 166 193 L 163 193 L 162 194 L 160 194 L 159 195 L 155 195 L 154 196 L 151 196 L 150 197 L 149 197 L 149 198 L 148 199 L 138 199 L 135 201 L 77 201 L 76 200 L 66 200 Z M 178 94 L 176 97 L 172 97 L 172 103 L 173 104 L 173 107 L 174 108 L 174 109 L 175 110 L 176 113 L 179 116 L 183 116 L 184 117 L 185 116 L 186 116 L 190 112 L 193 111 L 193 104 L 194 103 L 194 97 L 187 97 L 184 94 Z M 80 95 L 79 96 L 78 96 L 78 111 L 83 116 L 89 116 L 91 114 L 92 114 L 94 112 L 95 112 L 96 111 L 96 107 L 97 106 L 97 100 L 98 99 L 98 97 L 97 96 L 93 96 L 92 95 L 88 95 L 87 94 L 83 94 L 82 95 Z M 46 96 L 46 97 L 45 98 L 45 106 L 46 107 L 46 108 L 51 113 L 55 113 L 56 114 L 57 114 L 58 113 L 60 113 L 61 112 L 64 111 L 64 105 L 65 104 L 65 97 L 63 97 L 60 95 L 57 95 L 56 94 L 50 94 L 49 95 Z M 207 95 L 205 97 L 205 109 L 212 116 L 220 116 L 221 115 L 221 113 L 224 110 L 227 110 L 227 100 L 228 99 L 228 97 L 227 96 L 225 96 L 224 95 L 222 95 L 220 93 L 213 93 L 211 95 Z M 148 92 L 147 93 L 146 93 L 144 95 L 142 95 L 139 97 L 139 107 L 140 108 L 140 112 L 141 112 L 142 113 L 143 113 L 148 116 L 153 116 L 154 115 L 156 115 L 159 112 L 160 112 L 162 110 L 162 97 L 155 97 L 154 96 L 154 93 L 153 93 L 152 92 Z M 250 91 L 248 91 L 246 93 L 245 93 L 245 95 L 243 97 L 240 97 L 239 98 L 239 109 L 242 112 L 244 112 L 245 113 L 250 113 L 251 112 L 253 112 L 254 111 L 255 111 L 257 109 L 257 98 L 256 97 L 253 96 L 251 94 L 251 92 Z M 108 96 L 108 110 L 109 111 L 110 111 L 115 114 L 122 114 L 123 113 L 130 113 L 130 101 L 131 100 L 131 97 L 130 96 L 129 96 L 128 95 L 125 95 L 124 94 L 123 94 L 122 93 L 121 90 L 117 90 L 116 91 L 115 91 L 112 94 L 110 94 Z M 41 41 L 41 81 L 50 81 L 51 82 L 66 82 L 67 81 L 70 81 L 71 80 L 76 80 L 77 81 L 95 81 L 96 80 L 102 80 L 103 81 L 106 81 L 107 82 L 115 82 L 116 83 L 122 83 L 123 82 L 126 82 L 128 81 L 129 82 L 129 84 L 149 84 L 150 83 L 199 83 L 199 81 L 200 80 L 206 80 L 207 81 L 207 83 L 253 83 L 255 82 L 260 77 L 260 76 L 262 74 L 264 70 L 264 44 L 261 41 L 253 41 L 251 45 L 249 47 L 246 47 L 244 48 L 243 50 L 243 55 L 247 59 L 247 65 L 246 66 L 240 66 L 238 64 L 238 61 L 237 59 L 234 56 L 232 56 L 231 55 L 227 55 L 224 58 L 224 60 L 223 61 L 223 67 L 222 68 L 215 68 L 214 69 L 211 69 L 210 68 L 210 63 L 212 59 L 219 56 L 219 48 L 213 46 L 212 45 L 212 41 L 197 41 L 196 42 L 193 42 L 193 44 L 188 49 L 189 50 L 189 57 L 191 57 L 192 58 L 196 58 L 197 59 L 197 61 L 196 62 L 196 64 L 194 68 L 186 68 L 185 67 L 185 61 L 184 60 L 184 57 L 182 55 L 174 55 L 170 59 L 170 68 L 169 69 L 166 69 L 165 68 L 160 67 L 158 63 L 158 60 L 159 59 L 163 58 L 165 56 L 167 56 L 167 49 L 163 49 L 157 43 L 146 43 L 142 45 L 138 49 L 138 51 L 137 52 L 137 54 L 144 59 L 144 68 L 140 70 L 133 70 L 132 69 L 132 57 L 131 56 L 121 56 L 118 59 L 118 68 L 117 69 L 115 69 L 114 68 L 109 68 L 107 66 L 107 60 L 112 56 L 113 54 L 113 51 L 111 49 L 111 48 L 107 45 L 106 43 L 102 43 L 101 42 L 97 42 L 96 43 L 90 43 L 89 46 L 87 48 L 86 48 L 86 51 L 85 52 L 85 54 L 88 56 L 91 56 L 93 58 L 93 66 L 90 69 L 83 69 L 81 67 L 81 65 L 80 64 L 80 60 L 78 57 L 76 56 L 67 56 L 64 68 L 62 70 L 57 70 L 53 66 L 53 60 L 56 56 L 56 55 L 60 53 L 60 49 L 56 46 L 55 41 Z" fill="#8B2F68" fill-rule="evenodd" clip-rule="evenodd"/>
</svg>
