<?xml version="1.0" encoding="UTF-8"?>
<svg xmlns="http://www.w3.org/2000/svg" viewBox="0 0 1000 998" role="img" aria-labelledby="title">
  <title>Flor De Lis en color vino</title>
  <path d="M 282 404 L 282 422 L 281 423 L 278 423 L 277 424 L 272 424 L 272 427 L 273 428 L 273 432 L 274 433 L 274 434 L 285 434 L 286 435 L 286 446 L 287 446 L 288 447 L 292 447 L 293 448 L 296 448 L 302 442 L 303 442 L 304 441 L 315 441 L 316 440 L 320 440 L 320 433 L 315 428 L 315 426 L 313 423 L 313 420 L 312 419 L 312 411 L 311 410 L 296 410 L 295 409 L 293 409 L 292 408 L 290 408 L 289 407 L 287 407 Z M 719 402 L 712 402 L 711 403 L 711 404 L 707 408 L 688 408 L 688 411 L 689 412 L 689 416 L 692 418 L 692 428 L 686 434 L 686 438 L 690 438 L 691 439 L 699 439 L 702 441 L 702 443 L 703 444 L 703 447 L 704 448 L 712 448 L 713 445 L 715 443 L 715 442 L 718 439 L 718 438 L 719 437 L 720 437 L 723 434 L 726 433 L 728 431 L 728 427 L 727 426 L 727 425 L 726 425 L 722 421 L 722 420 L 721 419 L 721 415 L 720 414 L 720 403 Z M 395 43 L 393 48 L 369 49 L 334 64 L 310 68 L 266 94 L 240 104 L 241 106 L 227 119 L 206 131 L 204 142 L 198 151 L 179 163 L 158 184 L 142 193 L 132 203 L 119 225 L 118 232 L 114 233 L 105 246 L 91 276 L 76 297 L 54 361 L 49 391 L 43 394 L 41 599 L 48 600 L 49 614 L 59 629 L 64 653 L 75 678 L 79 695 L 98 737 L 122 774 L 132 780 L 154 816 L 164 819 L 190 846 L 198 847 L 213 857 L 248 887 L 292 913 L 309 915 L 316 921 L 328 922 L 332 926 L 346 927 L 338 915 L 337 908 L 340 903 L 348 904 L 349 909 L 356 909 L 358 912 L 356 930 L 360 933 L 390 943 L 405 945 L 407 948 L 417 948 L 429 956 L 524 954 L 559 956 L 572 949 L 601 946 L 622 938 L 636 936 L 636 930 L 629 924 L 626 913 L 609 905 L 609 896 L 613 888 L 631 891 L 634 905 L 651 906 L 653 918 L 645 927 L 660 924 L 663 926 L 665 922 L 679 916 L 685 917 L 703 910 L 748 886 L 758 874 L 769 870 L 793 852 L 801 841 L 807 839 L 836 812 L 841 802 L 852 791 L 852 785 L 867 769 L 900 720 L 907 696 L 914 688 L 938 635 L 951 565 L 958 553 L 957 465 L 950 411 L 943 374 L 937 357 L 924 335 L 912 297 L 903 279 L 899 277 L 881 239 L 865 214 L 849 198 L 850 196 L 788 136 L 786 128 L 773 122 L 764 112 L 699 79 L 694 73 L 678 64 L 661 62 L 653 55 L 600 48 L 595 43 L 577 41 Z M 469 889 L 469 877 L 470 876 L 470 871 L 471 870 L 476 870 L 477 871 L 479 871 L 480 872 L 486 872 L 487 873 L 490 873 L 491 874 L 493 874 L 494 875 L 494 881 L 492 883 L 491 883 L 490 884 L 487 885 L 485 887 L 484 887 L 481 889 L 479 889 L 478 890 L 470 890 Z M 457 868 L 457 876 L 456 877 L 456 880 L 455 881 L 455 882 L 452 885 L 452 886 L 449 889 L 428 889 L 426 887 L 425 887 L 420 883 L 419 883 L 418 882 L 416 882 L 414 880 L 414 878 L 415 877 L 415 875 L 417 872 L 423 872 L 424 871 L 429 871 L 430 870 L 434 870 L 435 869 L 435 868 L 437 866 L 455 866 Z M 369 864 L 377 856 L 385 856 L 391 862 L 392 865 L 395 868 L 396 868 L 398 871 L 399 871 L 400 872 L 400 880 L 398 882 L 395 882 L 394 883 L 392 883 L 391 882 L 388 882 L 387 881 L 382 881 L 381 880 L 379 880 L 378 879 L 376 879 L 374 877 L 371 876 L 368 873 L 368 866 L 369 865 Z M 575 859 L 578 856 L 582 856 L 583 855 L 593 855 L 594 856 L 599 856 L 600 857 L 603 858 L 606 861 L 607 861 L 612 866 L 613 866 L 615 868 L 615 869 L 616 870 L 616 871 L 618 873 L 618 875 L 620 877 L 620 878 L 619 879 L 606 879 L 605 880 L 605 881 L 603 883 L 595 883 L 593 881 L 593 880 L 592 880 L 588 876 L 587 876 L 584 873 L 583 873 L 582 872 L 581 872 L 580 871 L 577 870 L 575 868 Z M 479 852 L 480 851 L 481 851 L 481 850 L 485 846 L 486 846 L 488 844 L 492 844 L 493 843 L 497 843 L 498 844 L 501 844 L 502 845 L 502 848 L 518 848 L 523 853 L 524 853 L 526 855 L 527 855 L 528 856 L 531 857 L 533 859 L 533 872 L 532 873 L 531 873 L 526 876 L 524 876 L 523 877 L 518 877 L 517 876 L 514 876 L 511 874 L 509 874 L 507 872 L 506 872 L 504 870 L 503 870 L 501 868 L 500 868 L 497 865 L 494 865 L 493 864 L 489 864 L 488 863 L 480 863 L 479 862 Z M 526 842 L 527 841 L 528 841 L 529 840 L 530 840 L 535 837 L 566 837 L 567 838 L 572 838 L 573 839 L 576 839 L 578 841 L 578 843 L 579 844 L 579 848 L 577 850 L 576 850 L 575 851 L 574 851 L 573 852 L 570 853 L 566 857 L 565 857 L 563 859 L 563 861 L 564 862 L 564 866 L 565 867 L 565 869 L 566 870 L 566 871 L 575 880 L 576 880 L 577 881 L 577 889 L 576 890 L 574 890 L 571 892 L 567 892 L 566 893 L 556 893 L 555 894 L 549 894 L 548 893 L 541 893 L 540 892 L 535 892 L 531 888 L 531 885 L 530 884 L 530 882 L 531 881 L 531 880 L 533 878 L 534 878 L 536 876 L 536 875 L 548 863 L 549 863 L 552 860 L 550 860 L 549 859 L 547 859 L 546 858 L 545 858 L 544 857 L 543 857 L 542 856 L 539 855 L 534 850 L 533 850 L 532 849 L 530 849 L 528 847 L 527 847 L 526 846 Z M 430 835 L 431 834 L 456 834 L 457 835 L 467 835 L 468 836 L 470 836 L 473 838 L 473 845 L 472 846 L 471 849 L 470 850 L 469 850 L 464 855 L 462 855 L 461 854 L 447 854 L 446 853 L 439 853 L 435 848 L 435 847 L 433 844 L 433 842 L 431 839 L 431 836 Z M 395 818 L 398 818 L 401 821 L 401 822 L 403 822 L 412 830 L 412 831 L 413 832 L 413 834 L 415 837 L 415 840 L 416 841 L 416 849 L 418 851 L 418 852 L 421 855 L 421 856 L 423 859 L 423 861 L 424 862 L 424 864 L 423 865 L 419 865 L 418 864 L 412 864 L 411 863 L 404 863 L 402 861 L 402 859 L 395 852 L 395 849 L 394 848 L 394 819 Z M 436 807 L 442 801 L 444 801 L 445 800 L 450 800 L 451 801 L 458 801 L 459 802 L 461 802 L 462 803 L 464 803 L 465 804 L 468 804 L 469 805 L 472 806 L 474 808 L 474 821 L 471 824 L 458 824 L 456 822 L 451 822 L 450 821 L 440 821 L 439 820 L 438 820 L 436 818 Z M 485 809 L 486 808 L 488 808 L 489 807 L 490 807 L 491 806 L 492 806 L 493 805 L 496 804 L 498 802 L 499 802 L 501 800 L 502 800 L 504 798 L 505 798 L 508 795 L 509 795 L 513 791 L 514 791 L 519 788 L 521 788 L 522 787 L 524 787 L 525 788 L 525 793 L 530 798 L 531 798 L 533 800 L 533 815 L 534 815 L 535 814 L 538 814 L 539 813 L 541 813 L 542 812 L 545 812 L 546 811 L 547 811 L 548 810 L 548 809 L 550 807 L 560 807 L 561 808 L 561 812 L 560 813 L 560 816 L 558 818 L 558 820 L 555 823 L 555 824 L 553 826 L 530 826 L 529 825 L 529 816 L 528 817 L 525 817 L 524 818 L 517 818 L 516 819 L 514 819 L 509 822 L 486 822 L 485 821 Z M 598 784 L 609 784 L 610 785 L 610 803 L 609 804 L 606 804 L 606 815 L 607 815 L 610 817 L 615 817 L 618 820 L 618 823 L 619 824 L 619 829 L 620 830 L 620 840 L 621 841 L 621 842 L 619 845 L 618 845 L 617 846 L 615 846 L 614 847 L 612 847 L 611 848 L 603 848 L 602 847 L 598 847 L 597 846 L 594 846 L 593 845 L 591 845 L 589 843 L 589 840 L 590 839 L 590 834 L 591 833 L 591 826 L 592 825 L 594 825 L 595 824 L 596 824 L 598 822 L 598 820 L 599 819 L 599 818 L 598 818 L 597 817 L 594 817 L 593 816 L 589 816 L 588 817 L 585 818 L 583 820 L 573 820 L 572 819 L 572 802 L 573 801 L 573 799 L 575 797 L 575 796 L 579 792 L 593 792 L 594 791 L 594 790 L 595 789 L 596 786 Z M 437 777 L 438 778 L 438 786 L 437 787 L 437 792 L 436 793 L 436 795 L 435 796 L 435 797 L 431 801 L 430 801 L 428 803 L 427 803 L 427 812 L 425 814 L 416 814 L 415 815 L 408 815 L 407 816 L 403 816 L 402 815 L 402 797 L 404 795 L 405 795 L 406 794 L 406 793 L 408 791 L 408 789 L 411 786 L 415 786 L 418 784 L 420 784 L 422 782 L 423 782 L 424 781 L 426 781 L 429 779 L 431 779 L 432 778 L 434 778 L 435 777 Z M 454 781 L 458 777 L 459 777 L 464 774 L 468 774 L 469 773 L 488 773 L 489 774 L 492 774 L 494 776 L 495 776 L 500 781 L 501 781 L 502 782 L 502 789 L 500 791 L 499 791 L 497 793 L 496 793 L 494 795 L 493 795 L 492 796 L 482 796 L 480 794 L 480 791 L 466 791 L 465 790 L 457 790 L 456 789 L 455 789 L 454 788 Z M 351 785 L 352 784 L 352 781 L 354 779 L 357 778 L 359 776 L 361 776 L 364 774 L 369 774 L 370 773 L 373 773 L 374 774 L 380 774 L 381 775 L 382 775 L 385 777 L 387 777 L 388 778 L 389 778 L 391 780 L 392 780 L 396 784 L 396 791 L 393 794 L 392 794 L 388 798 L 387 798 L 385 800 L 384 800 L 383 799 L 375 799 L 374 798 L 370 798 L 369 797 L 366 797 L 365 796 L 362 796 L 361 795 L 359 795 L 358 794 L 356 794 L 355 793 L 352 792 L 351 791 Z M 655 771 L 655 788 L 653 790 L 651 790 L 650 791 L 647 791 L 646 792 L 642 792 L 641 793 L 639 793 L 638 794 L 638 796 L 637 797 L 625 797 L 624 796 L 624 788 L 625 787 L 625 782 L 627 780 L 627 779 L 628 778 L 629 778 L 630 777 L 632 777 L 633 776 L 636 776 L 637 775 L 638 775 L 639 774 L 642 773 L 647 768 L 648 768 L 649 769 L 651 769 L 652 770 L 654 770 Z M 536 789 L 536 777 L 535 776 L 538 773 L 540 773 L 543 771 L 545 771 L 546 770 L 548 770 L 549 769 L 551 769 L 552 768 L 585 768 L 594 777 L 593 778 L 593 781 L 590 784 L 588 784 L 587 785 L 585 785 L 584 786 L 580 786 L 579 787 L 577 787 L 576 788 L 562 788 L 561 789 L 556 789 L 555 790 L 554 790 L 550 794 L 549 794 L 546 796 L 544 796 L 543 797 L 541 797 L 540 796 L 540 791 L 539 791 Z M 324 754 L 328 754 L 329 755 L 331 755 L 332 756 L 335 756 L 336 757 L 338 757 L 339 758 L 341 758 L 344 760 L 344 761 L 345 762 L 345 764 L 348 764 L 349 765 L 349 775 L 343 781 L 339 781 L 338 782 L 335 782 L 334 781 L 330 781 L 329 780 L 328 780 L 326 778 L 325 778 L 319 772 L 319 770 L 318 769 L 318 763 L 319 762 L 319 760 L 321 758 L 321 757 Z M 694 743 L 695 744 L 695 760 L 694 761 L 694 766 L 692 768 L 692 769 L 690 771 L 689 771 L 687 773 L 687 775 L 682 780 L 681 780 L 678 783 L 674 783 L 673 782 L 669 782 L 668 781 L 666 781 L 665 780 L 665 758 L 666 757 L 667 757 L 668 756 L 669 756 L 670 755 L 673 754 L 675 752 L 678 751 L 678 750 L 677 749 L 677 748 L 678 747 L 679 747 L 680 746 L 686 746 L 687 745 L 689 745 L 692 743 Z M 272 735 L 274 733 L 275 733 L 276 732 L 278 732 L 279 731 L 280 731 L 281 730 L 284 729 L 286 727 L 296 727 L 298 729 L 299 729 L 309 739 L 309 742 L 310 743 L 310 746 L 311 747 L 311 750 L 305 756 L 304 756 L 303 757 L 294 757 L 293 756 L 290 755 L 287 752 L 286 752 L 284 750 L 283 750 L 279 746 L 279 743 L 274 743 L 272 741 Z M 728 719 L 733 724 L 733 725 L 734 726 L 734 729 L 735 730 L 735 736 L 734 737 L 734 741 L 729 746 L 728 746 L 724 750 L 721 751 L 719 753 L 718 753 L 717 754 L 715 754 L 714 755 L 706 755 L 705 754 L 705 734 L 707 732 L 708 732 L 713 727 L 714 727 L 717 724 L 717 723 L 719 721 L 720 721 L 721 720 L 725 720 L 726 719 Z M 241 704 L 242 703 L 248 703 L 249 702 L 254 702 L 257 700 L 259 700 L 260 699 L 263 699 L 278 714 L 278 722 L 277 723 L 275 723 L 273 725 L 272 725 L 271 726 L 257 726 L 243 712 L 243 710 L 242 709 L 242 707 L 241 706 Z M 763 691 L 767 696 L 767 698 L 768 699 L 768 709 L 767 710 L 767 712 L 766 713 L 765 713 L 765 714 L 763 716 L 762 716 L 762 717 L 761 718 L 760 718 L 754 724 L 753 724 L 751 726 L 742 726 L 736 717 L 736 709 L 737 708 L 737 705 L 738 704 L 739 701 L 745 695 L 746 695 L 748 693 L 749 693 L 752 690 L 753 690 L 754 689 L 758 689 L 761 691 Z M 216 667 L 217 666 L 222 666 L 223 665 L 227 665 L 228 664 L 230 664 L 231 665 L 232 665 L 236 669 L 237 669 L 240 672 L 240 673 L 241 674 L 241 675 L 242 676 L 242 677 L 245 682 L 245 684 L 246 685 L 246 687 L 247 688 L 247 689 L 246 690 L 227 690 L 213 676 L 213 675 L 214 674 L 214 671 L 215 670 Z M 789 654 L 792 657 L 792 658 L 795 661 L 795 662 L 796 663 L 796 668 L 795 669 L 795 673 L 794 674 L 794 677 L 792 679 L 792 680 L 786 686 L 786 687 L 785 688 L 785 690 L 783 693 L 778 693 L 777 692 L 773 692 L 771 689 L 771 687 L 770 686 L 770 684 L 769 683 L 769 681 L 768 680 L 768 667 L 781 654 Z M 189 629 L 190 628 L 208 628 L 211 631 L 211 632 L 215 636 L 215 637 L 216 638 L 216 640 L 217 641 L 217 644 L 218 645 L 218 652 L 216 654 L 215 654 L 214 655 L 210 655 L 209 656 L 204 656 L 203 657 L 200 657 L 197 654 L 197 653 L 196 652 L 196 651 L 195 650 L 194 647 L 192 645 L 192 644 L 188 639 L 188 637 L 187 636 L 187 635 L 188 634 L 188 631 L 189 630 Z M 804 615 L 805 615 L 806 616 L 808 616 L 811 618 L 813 618 L 814 619 L 815 619 L 817 621 L 820 622 L 822 624 L 822 630 L 821 631 L 821 635 L 820 636 L 820 638 L 819 639 L 819 641 L 818 642 L 818 643 L 816 645 L 815 648 L 809 655 L 808 655 L 807 654 L 803 654 L 801 652 L 800 652 L 794 646 L 794 645 L 792 643 L 792 633 L 793 632 L 793 631 L 795 629 L 795 628 L 801 622 L 801 621 L 802 620 L 802 618 Z M 167 588 L 168 587 L 177 587 L 178 588 L 185 588 L 186 589 L 190 589 L 191 590 L 191 591 L 192 592 L 193 595 L 194 596 L 195 596 L 197 598 L 197 599 L 198 600 L 198 602 L 199 603 L 199 612 L 198 613 L 198 614 L 196 616 L 195 616 L 192 618 L 181 618 L 174 611 L 174 610 L 172 607 L 172 602 L 170 599 L 170 596 L 169 595 L 169 593 L 168 592 L 168 590 L 167 589 Z M 540 581 L 542 583 L 542 586 L 544 589 L 544 604 L 545 605 L 545 610 L 547 613 L 547 616 L 548 617 L 549 620 L 551 622 L 551 623 L 552 624 L 553 627 L 555 629 L 555 631 L 556 632 L 556 633 L 557 634 L 557 636 L 560 641 L 560 643 L 561 644 L 561 646 L 562 647 L 563 650 L 565 650 L 566 651 L 567 651 L 569 653 L 569 657 L 568 658 L 568 661 L 567 662 L 567 663 L 566 664 L 566 665 L 565 666 L 565 667 L 564 668 L 563 671 L 560 674 L 560 676 L 559 677 L 559 682 L 560 683 L 560 684 L 557 687 L 554 687 L 550 692 L 549 692 L 545 696 L 544 696 L 538 702 L 538 703 L 536 705 L 536 706 L 534 709 L 527 709 L 525 711 L 524 711 L 517 718 L 515 718 L 513 720 L 512 720 L 509 722 L 494 722 L 486 714 L 485 714 L 482 711 L 479 710 L 477 708 L 476 708 L 472 704 L 471 704 L 461 694 L 460 694 L 456 690 L 455 690 L 453 688 L 452 688 L 447 684 L 446 684 L 445 683 L 442 682 L 433 673 L 433 671 L 432 670 L 432 668 L 431 667 L 431 662 L 430 661 L 430 653 L 431 652 L 431 649 L 432 648 L 432 646 L 433 645 L 433 644 L 434 643 L 435 640 L 437 638 L 438 635 L 442 631 L 442 630 L 444 627 L 444 625 L 445 624 L 445 622 L 446 621 L 446 618 L 449 616 L 450 616 L 451 617 L 451 613 L 452 612 L 452 607 L 453 606 L 453 605 L 456 600 L 456 598 L 457 597 L 457 595 L 458 594 L 458 590 L 459 589 L 459 587 L 460 586 L 460 584 L 462 582 L 491 582 L 492 583 L 492 598 L 493 599 L 493 617 L 494 618 L 494 620 L 495 621 L 495 629 L 496 630 L 496 634 L 497 635 L 497 643 L 498 644 L 498 649 L 499 650 L 499 652 L 500 653 L 500 656 L 507 656 L 507 582 L 508 581 Z M 830 576 L 832 576 L 833 577 L 834 577 L 835 578 L 838 579 L 840 581 L 840 590 L 839 591 L 839 593 L 837 595 L 837 596 L 834 599 L 833 599 L 832 600 L 832 611 L 831 612 L 830 612 L 829 611 L 824 611 L 823 610 L 822 610 L 820 608 L 820 607 L 817 602 L 817 581 L 818 580 L 819 580 L 821 578 L 825 578 L 826 577 L 829 577 Z M 560 582 L 563 580 L 568 580 L 569 579 L 575 579 L 578 576 L 579 576 L 580 575 L 588 575 L 591 580 L 591 582 L 593 584 L 593 585 L 594 586 L 594 587 L 595 588 L 596 591 L 598 593 L 599 596 L 607 604 L 609 604 L 612 606 L 614 606 L 617 609 L 617 610 L 618 611 L 618 613 L 652 613 L 653 614 L 653 619 L 652 620 L 652 624 L 651 625 L 651 629 L 650 630 L 650 631 L 647 634 L 647 635 L 646 636 L 646 638 L 644 640 L 644 641 L 640 645 L 639 645 L 636 647 L 634 647 L 633 648 L 630 649 L 628 651 L 595 651 L 588 644 L 586 644 L 585 643 L 581 643 L 578 638 L 578 634 L 577 633 L 577 631 L 576 630 L 576 629 L 575 628 L 575 627 L 574 626 L 573 623 L 571 621 L 570 621 L 567 618 L 567 617 L 565 615 L 565 614 L 564 613 L 564 612 L 561 607 L 561 605 L 560 604 L 560 601 L 559 600 L 559 592 L 560 591 Z M 448 582 L 448 592 L 447 593 L 446 596 L 443 599 L 443 600 L 442 601 L 442 602 L 441 603 L 441 604 L 438 609 L 438 611 L 437 612 L 437 615 L 436 616 L 436 618 L 435 619 L 435 621 L 430 626 L 430 627 L 428 629 L 426 635 L 415 646 L 414 646 L 411 649 L 409 649 L 407 651 L 401 651 L 400 652 L 384 652 L 383 651 L 375 651 L 374 650 L 372 650 L 371 649 L 368 648 L 366 646 L 365 646 L 357 638 L 357 637 L 353 632 L 353 631 L 352 630 L 352 628 L 351 627 L 351 624 L 350 623 L 350 619 L 349 618 L 349 615 L 350 614 L 352 614 L 353 615 L 359 615 L 360 616 L 370 616 L 371 615 L 380 615 L 381 614 L 382 614 L 383 613 L 384 613 L 385 612 L 386 612 L 387 611 L 390 610 L 398 601 L 398 600 L 401 597 L 402 594 L 406 590 L 406 589 L 409 586 L 409 584 L 410 583 L 410 581 L 411 580 L 411 576 L 412 575 L 422 575 L 423 576 L 432 576 L 433 577 L 438 577 L 439 578 L 444 578 Z M 155 541 L 166 541 L 167 540 L 172 540 L 174 542 L 174 549 L 175 550 L 175 551 L 178 554 L 178 555 L 179 555 L 182 557 L 182 561 L 181 562 L 181 566 L 180 567 L 180 570 L 179 571 L 163 571 L 161 569 L 161 568 L 156 563 L 156 562 L 154 560 L 154 550 L 153 549 L 153 543 Z M 836 530 L 841 530 L 842 531 L 845 532 L 846 533 L 846 534 L 849 537 L 850 537 L 851 538 L 851 541 L 850 542 L 850 550 L 849 551 L 849 566 L 846 568 L 843 568 L 842 569 L 838 569 L 830 561 L 830 550 L 831 549 L 831 544 L 832 543 L 832 540 L 833 539 L 833 537 L 834 536 L 834 534 L 835 533 L 835 531 Z M 394 551 L 398 542 L 400 540 L 404 538 L 406 538 L 407 537 L 410 537 L 413 535 L 417 535 L 418 534 L 423 534 L 424 533 L 430 533 L 431 532 L 448 532 L 449 530 L 457 530 L 458 529 L 558 529 L 559 530 L 567 530 L 568 531 L 577 532 L 578 533 L 580 533 L 581 534 L 584 534 L 585 535 L 588 535 L 592 537 L 598 537 L 599 538 L 602 538 L 606 540 L 612 546 L 612 549 L 610 553 L 610 556 L 607 558 L 604 558 L 603 559 L 601 559 L 597 561 L 595 563 L 590 563 L 589 561 L 586 563 L 584 563 L 578 566 L 567 566 L 566 567 L 553 567 L 552 568 L 542 568 L 541 569 L 507 569 L 506 570 L 479 570 L 478 569 L 458 569 L 457 568 L 452 568 L 451 567 L 443 567 L 442 566 L 436 566 L 434 564 L 432 564 L 431 563 L 425 563 L 424 562 L 421 562 L 420 561 L 418 561 L 417 560 L 417 557 L 418 556 L 450 556 L 451 557 L 455 557 L 456 558 L 464 558 L 466 556 L 503 556 L 504 555 L 533 555 L 534 554 L 595 554 L 595 552 L 594 551 L 594 547 L 592 546 L 589 546 L 588 545 L 573 544 L 572 543 L 567 543 L 566 542 L 555 542 L 554 541 L 534 541 L 533 540 L 465 540 L 464 541 L 441 541 L 440 542 L 431 542 L 430 543 L 426 543 L 425 544 L 419 544 L 418 545 L 413 545 L 412 546 L 410 546 L 408 547 L 408 548 L 406 550 L 403 550 L 399 552 L 395 552 Z M 147 497 L 163 497 L 164 498 L 165 498 L 169 502 L 169 503 L 170 504 L 170 506 L 171 507 L 171 519 L 172 520 L 172 527 L 171 528 L 151 528 L 148 525 L 148 514 L 147 513 L 147 504 L 146 503 L 146 498 Z M 840 489 L 848 489 L 849 490 L 852 490 L 853 491 L 856 491 L 857 492 L 857 497 L 858 496 L 859 497 L 859 519 L 858 520 L 858 522 L 856 524 L 853 524 L 852 523 L 850 523 L 849 522 L 847 522 L 846 521 L 845 521 L 843 519 L 841 519 L 835 513 L 835 504 L 836 503 L 836 497 L 837 496 L 837 495 L 838 494 L 838 492 Z M 144 449 L 156 449 L 157 450 L 161 450 L 165 455 L 165 456 L 166 457 L 166 484 L 165 485 L 155 485 L 152 482 L 150 482 L 149 481 L 147 481 L 146 480 L 144 480 L 143 479 L 143 450 Z M 842 442 L 856 442 L 863 449 L 863 478 L 862 479 L 850 479 L 839 468 L 839 446 L 840 445 L 840 444 Z M 148 403 L 158 403 L 159 404 L 160 404 L 162 406 L 163 406 L 164 407 L 167 408 L 169 410 L 169 420 L 168 421 L 168 437 L 167 438 L 149 438 L 148 437 L 148 434 L 147 433 L 147 431 L 146 430 L 146 405 Z M 837 399 L 853 399 L 854 400 L 855 400 L 857 402 L 857 413 L 858 414 L 858 422 L 859 423 L 859 429 L 858 430 L 851 430 L 850 429 L 844 429 L 843 428 L 843 427 L 840 424 L 840 423 L 838 421 L 837 421 L 836 420 L 836 400 Z M 160 359 L 163 359 L 164 360 L 166 360 L 167 361 L 168 361 L 169 362 L 170 362 L 171 363 L 174 364 L 176 366 L 179 366 L 180 367 L 180 370 L 179 371 L 179 375 L 178 376 L 178 377 L 174 381 L 174 383 L 173 384 L 173 388 L 172 389 L 172 397 L 169 399 L 166 399 L 165 400 L 164 400 L 163 399 L 163 396 L 161 394 L 161 393 L 160 392 L 159 392 L 158 391 L 158 390 L 157 389 L 156 389 L 154 386 L 154 370 L 155 369 L 155 368 L 157 366 L 157 364 L 158 363 L 158 361 Z M 827 354 L 844 354 L 849 359 L 849 361 L 850 362 L 850 365 L 851 366 L 851 383 L 850 384 L 834 384 L 830 380 L 830 379 L 828 377 L 828 375 L 827 374 L 827 370 L 826 369 L 826 367 L 825 366 L 825 356 Z M 762 397 L 762 398 L 765 403 L 765 405 L 767 408 L 767 410 L 768 411 L 768 413 L 769 414 L 769 418 L 770 419 L 770 423 L 771 424 L 771 438 L 772 439 L 772 450 L 771 451 L 771 462 L 770 463 L 770 465 L 769 466 L 769 470 L 768 471 L 768 474 L 767 475 L 767 477 L 766 478 L 766 481 L 762 485 L 762 486 L 759 491 L 759 493 L 758 494 L 758 497 L 757 498 L 757 499 L 754 502 L 753 502 L 752 503 L 751 503 L 750 502 L 740 512 L 739 512 L 736 515 L 735 515 L 729 520 L 728 520 L 723 523 L 720 523 L 719 524 L 717 524 L 716 525 L 710 525 L 709 526 L 702 526 L 701 527 L 696 527 L 695 528 L 688 528 L 687 527 L 687 514 L 686 513 L 686 499 L 685 498 L 685 492 L 683 490 L 683 489 L 679 485 L 679 484 L 670 476 L 669 476 L 666 474 L 664 474 L 663 473 L 660 473 L 659 472 L 657 472 L 655 470 L 653 470 L 652 469 L 644 469 L 643 470 L 634 470 L 633 471 L 630 471 L 629 472 L 627 472 L 624 474 L 622 474 L 618 478 L 617 481 L 615 483 L 615 485 L 613 488 L 613 490 L 611 492 L 608 493 L 608 494 L 606 496 L 606 497 L 603 502 L 602 507 L 601 508 L 601 512 L 600 513 L 600 516 L 599 517 L 599 520 L 596 524 L 582 524 L 581 523 L 574 523 L 573 522 L 569 522 L 568 521 L 565 521 L 564 520 L 560 520 L 559 519 L 557 519 L 556 518 L 556 490 L 559 488 L 559 487 L 561 484 L 561 482 L 563 479 L 563 477 L 564 476 L 564 474 L 565 473 L 565 470 L 566 469 L 566 466 L 567 465 L 567 461 L 568 460 L 568 457 L 571 454 L 571 452 L 572 451 L 572 446 L 576 440 L 576 438 L 577 437 L 577 433 L 578 432 L 578 429 L 579 428 L 579 426 L 580 425 L 585 414 L 587 412 L 587 411 L 590 407 L 590 406 L 599 396 L 599 395 L 602 393 L 602 392 L 603 391 L 604 391 L 606 389 L 608 389 L 612 385 L 613 385 L 622 377 L 623 377 L 629 372 L 632 371 L 637 367 L 638 367 L 647 362 L 649 362 L 652 360 L 655 360 L 656 359 L 658 359 L 659 358 L 661 358 L 662 357 L 666 357 L 666 354 L 667 353 L 676 353 L 677 354 L 685 354 L 686 355 L 690 355 L 691 356 L 699 356 L 700 357 L 703 357 L 704 358 L 706 358 L 707 357 L 711 357 L 712 358 L 717 358 L 718 357 L 719 357 L 720 358 L 721 358 L 723 360 L 723 361 L 732 370 L 733 370 L 738 375 L 739 375 L 740 376 L 740 377 L 741 377 L 743 380 L 744 380 Z M 242 395 L 251 385 L 251 384 L 252 383 L 253 383 L 253 382 L 257 378 L 257 377 L 261 373 L 261 372 L 266 366 L 267 366 L 269 364 L 270 364 L 272 362 L 273 362 L 276 360 L 281 359 L 286 356 L 288 356 L 291 354 L 296 353 L 299 351 L 305 351 L 306 350 L 332 350 L 333 351 L 338 351 L 339 352 L 341 352 L 344 354 L 347 354 L 348 355 L 352 355 L 353 356 L 362 356 L 364 358 L 365 361 L 366 361 L 367 362 L 367 363 L 368 363 L 369 364 L 373 364 L 375 366 L 375 369 L 376 370 L 376 371 L 375 372 L 373 372 L 377 375 L 378 375 L 381 378 L 382 378 L 387 383 L 388 383 L 390 386 L 391 386 L 395 390 L 396 390 L 408 402 L 408 404 L 410 407 L 410 410 L 411 411 L 417 424 L 420 427 L 420 428 L 421 429 L 421 431 L 424 436 L 424 438 L 425 439 L 425 440 L 427 442 L 427 443 L 429 445 L 429 446 L 431 449 L 431 454 L 432 455 L 432 464 L 434 466 L 434 467 L 435 468 L 436 471 L 438 473 L 438 474 L 442 477 L 442 479 L 441 480 L 441 492 L 442 493 L 442 503 L 443 504 L 443 509 L 444 510 L 444 513 L 445 514 L 445 518 L 444 519 L 408 519 L 406 516 L 406 514 L 405 513 L 405 510 L 403 508 L 403 506 L 400 503 L 400 502 L 399 501 L 398 501 L 395 498 L 395 497 L 392 492 L 391 487 L 390 486 L 387 479 L 380 472 L 379 472 L 370 467 L 367 467 L 364 465 L 346 465 L 345 466 L 343 466 L 342 467 L 337 468 L 330 472 L 328 472 L 325 475 L 324 475 L 319 481 L 319 482 L 316 487 L 316 494 L 315 495 L 315 499 L 314 500 L 314 514 L 313 515 L 313 524 L 312 525 L 312 527 L 311 528 L 309 528 L 308 529 L 296 529 L 295 528 L 294 528 L 289 525 L 287 525 L 286 524 L 280 524 L 279 523 L 275 523 L 274 522 L 273 522 L 269 518 L 269 517 L 267 515 L 264 514 L 261 511 L 260 511 L 251 502 L 250 502 L 249 501 L 249 498 L 248 497 L 248 496 L 244 492 L 244 491 L 242 489 L 241 486 L 239 484 L 239 482 L 236 477 L 236 475 L 235 474 L 235 470 L 234 469 L 234 467 L 233 466 L 233 460 L 232 459 L 232 453 L 231 452 L 231 429 L 232 428 L 232 424 L 233 423 L 233 419 L 236 414 L 236 412 L 238 410 L 238 409 L 241 407 L 241 404 L 242 403 L 242 402 L 242 403 L 241 404 L 239 402 L 240 401 L 240 399 L 241 398 Z M 809 315 L 811 313 L 826 313 L 828 315 L 828 316 L 829 317 L 829 319 L 830 320 L 830 322 L 831 323 L 831 326 L 832 327 L 832 329 L 834 332 L 834 334 L 836 336 L 836 337 L 838 339 L 838 340 L 837 341 L 818 341 L 817 340 L 817 339 L 814 334 L 814 332 L 813 331 L 813 327 L 812 326 L 812 324 L 811 323 L 811 320 L 809 317 Z M 175 312 L 180 312 L 181 313 L 183 313 L 184 314 L 185 314 L 189 318 L 189 319 L 191 321 L 191 322 L 192 323 L 192 326 L 193 327 L 193 330 L 192 331 L 192 337 L 191 338 L 191 344 L 190 345 L 190 350 L 189 351 L 189 353 L 187 355 L 182 355 L 179 353 L 177 353 L 176 352 L 175 352 L 167 344 L 167 332 L 171 328 L 171 327 L 172 326 L 172 319 L 173 318 L 173 314 Z M 789 275 L 791 273 L 809 273 L 812 276 L 812 277 L 813 278 L 814 281 L 816 283 L 816 284 L 820 289 L 820 290 L 822 293 L 822 295 L 823 296 L 823 298 L 820 301 L 817 301 L 816 302 L 812 302 L 811 303 L 803 303 L 802 302 L 799 302 L 792 295 L 792 294 L 789 291 L 789 288 L 788 287 L 788 277 L 789 276 Z M 196 273 L 197 273 L 198 274 L 203 274 L 204 275 L 208 275 L 209 276 L 210 276 L 211 277 L 211 279 L 212 280 L 212 282 L 213 283 L 213 292 L 212 293 L 212 295 L 210 297 L 210 298 L 207 303 L 207 305 L 206 306 L 206 308 L 205 309 L 205 311 L 204 312 L 199 312 L 198 311 L 194 311 L 193 310 L 192 310 L 186 304 L 185 304 L 183 302 L 183 294 L 184 293 L 185 293 L 187 291 L 190 291 L 190 289 L 191 288 L 191 286 L 192 285 L 192 283 L 193 282 L 193 280 L 194 279 L 194 277 L 195 276 L 195 274 Z M 757 239 L 758 238 L 767 238 L 768 237 L 775 237 L 776 236 L 780 236 L 781 237 L 782 237 L 784 239 L 784 240 L 786 242 L 786 243 L 794 251 L 795 251 L 796 252 L 798 252 L 799 253 L 799 256 L 798 257 L 798 260 L 796 262 L 795 262 L 794 263 L 792 263 L 791 264 L 789 264 L 788 265 L 774 265 L 770 261 L 770 260 L 768 258 L 768 255 L 761 248 L 761 247 L 759 245 L 759 244 L 757 241 Z M 235 238 L 239 244 L 239 259 L 238 260 L 236 260 L 226 270 L 225 270 L 224 271 L 217 271 L 215 269 L 214 269 L 213 268 L 213 261 L 212 260 L 212 256 L 211 255 L 211 252 L 212 251 L 212 250 L 214 248 L 214 247 L 225 236 L 226 236 L 227 237 L 231 237 L 232 238 Z M 261 203 L 268 210 L 268 222 L 257 233 L 257 237 L 253 241 L 251 241 L 250 240 L 246 240 L 245 239 L 244 239 L 241 236 L 241 235 L 239 233 L 239 232 L 238 231 L 238 217 L 243 212 L 244 212 L 248 208 L 249 208 L 251 206 L 252 206 L 255 203 Z M 725 207 L 727 205 L 728 205 L 731 203 L 733 203 L 736 201 L 739 201 L 740 200 L 746 200 L 747 201 L 748 201 L 750 203 L 751 203 L 759 211 L 759 212 L 763 216 L 763 219 L 762 220 L 762 223 L 761 224 L 761 226 L 760 227 L 754 227 L 753 228 L 748 228 L 747 229 L 742 229 L 726 213 L 726 212 L 725 211 Z M 507 191 L 515 201 L 525 209 L 533 213 L 535 213 L 539 216 L 548 227 L 553 229 L 560 236 L 560 238 L 564 245 L 580 261 L 585 269 L 593 286 L 597 291 L 598 298 L 599 299 L 600 323 L 601 324 L 600 326 L 599 344 L 597 349 L 597 367 L 593 371 L 591 375 L 590 386 L 588 388 L 585 388 L 582 399 L 580 400 L 566 428 L 566 431 L 564 437 L 562 439 L 560 447 L 555 451 L 555 457 L 554 458 L 553 466 L 549 471 L 549 474 L 547 478 L 547 483 L 545 488 L 545 492 L 544 493 L 544 497 L 539 513 L 538 514 L 512 514 L 511 513 L 508 514 L 507 513 L 507 390 L 508 389 L 508 372 L 507 371 L 507 351 L 505 350 L 506 316 L 505 313 L 501 310 L 501 315 L 500 316 L 500 320 L 498 325 L 498 332 L 497 333 L 496 363 L 495 364 L 495 367 L 496 368 L 496 400 L 495 401 L 495 492 L 494 493 L 494 514 L 490 517 L 485 517 L 484 518 L 462 519 L 460 517 L 460 513 L 461 512 L 461 496 L 458 493 L 457 485 L 454 477 L 454 473 L 452 470 L 452 467 L 450 464 L 445 446 L 438 433 L 438 430 L 435 421 L 435 417 L 430 414 L 426 400 L 420 398 L 411 385 L 411 383 L 409 380 L 408 366 L 403 360 L 403 296 L 408 291 L 409 271 L 415 264 L 418 264 L 421 256 L 424 253 L 425 254 L 434 241 L 441 233 L 447 229 L 453 228 L 457 224 L 458 221 L 467 212 L 471 209 L 473 209 L 481 200 L 493 196 L 496 191 Z M 691 182 L 692 181 L 695 181 L 696 180 L 697 180 L 701 176 L 702 176 L 703 175 L 716 175 L 717 176 L 719 176 L 720 177 L 722 177 L 723 176 L 725 178 L 725 181 L 726 182 L 726 183 L 727 184 L 728 187 L 730 189 L 730 190 L 731 191 L 731 193 L 730 194 L 724 194 L 720 198 L 707 198 L 706 197 L 705 194 L 702 191 L 701 191 L 700 190 L 699 190 L 697 188 L 694 187 L 692 185 Z M 299 173 L 301 175 L 301 180 L 302 181 L 302 184 L 303 185 L 303 190 L 304 191 L 304 193 L 303 194 L 300 194 L 293 201 L 293 202 L 291 204 L 291 205 L 287 210 L 279 210 L 278 209 L 278 208 L 276 206 L 276 204 L 275 203 L 275 200 L 274 199 L 274 195 L 275 194 L 275 189 L 282 182 L 282 179 L 287 174 L 288 174 L 289 173 Z M 338 152 L 339 153 L 339 167 L 337 169 L 335 169 L 334 172 L 331 175 L 330 175 L 328 177 L 327 177 L 326 178 L 325 178 L 324 179 L 323 179 L 322 180 L 321 180 L 316 183 L 314 183 L 313 182 L 313 159 L 318 154 L 319 154 L 320 153 L 321 153 L 322 154 L 325 154 L 328 151 L 334 151 L 335 152 Z M 654 157 L 663 148 L 678 148 L 680 151 L 681 151 L 683 153 L 686 154 L 688 156 L 689 156 L 690 157 L 690 167 L 685 172 L 673 172 L 672 171 L 670 171 L 669 170 L 668 170 L 666 168 L 664 168 L 663 167 L 659 167 L 656 164 L 656 163 L 655 162 L 655 159 L 654 158 Z M 616 133 L 620 129 L 621 129 L 622 128 L 625 128 L 626 129 L 633 129 L 634 130 L 637 130 L 638 131 L 640 131 L 641 132 L 643 132 L 644 133 L 645 133 L 646 134 L 649 135 L 651 137 L 651 147 L 650 148 L 650 149 L 648 151 L 648 152 L 645 155 L 644 155 L 643 156 L 631 156 L 630 155 L 628 155 L 623 151 L 622 151 L 617 148 L 615 148 L 613 146 L 613 145 L 614 144 L 614 137 L 615 136 Z M 381 128 L 382 129 L 382 148 L 381 149 L 381 150 L 379 152 L 377 152 L 376 153 L 374 153 L 373 154 L 372 154 L 371 155 L 370 155 L 369 156 L 366 157 L 362 161 L 357 161 L 356 160 L 354 160 L 352 158 L 352 153 L 351 152 L 351 140 L 353 138 L 353 137 L 357 133 L 358 133 L 361 131 L 364 131 L 365 130 L 367 130 L 368 129 L 374 129 L 375 128 Z M 425 117 L 425 134 L 421 138 L 416 138 L 415 139 L 408 139 L 407 140 L 403 140 L 402 141 L 396 141 L 395 140 L 395 123 L 397 121 L 401 121 L 402 120 L 403 120 L 404 119 L 404 118 L 406 116 L 424 116 Z M 568 134 L 569 133 L 569 130 L 570 129 L 570 126 L 571 125 L 571 124 L 572 123 L 572 122 L 573 121 L 573 120 L 574 119 L 575 116 L 577 114 L 579 114 L 580 113 L 588 113 L 589 114 L 594 114 L 595 115 L 599 115 L 600 116 L 602 116 L 605 118 L 607 118 L 610 121 L 610 125 L 609 126 L 609 129 L 608 130 L 608 131 L 602 137 L 590 137 L 589 138 L 576 138 L 575 137 L 572 137 L 571 136 L 570 136 Z M 471 108 L 471 109 L 472 110 L 472 114 L 471 115 L 471 120 L 465 129 L 439 129 L 438 128 L 438 118 L 439 117 L 439 116 L 444 111 L 445 111 L 448 109 L 450 109 L 451 108 L 456 108 L 457 107 L 470 107 Z M 526 112 L 530 108 L 532 108 L 532 106 L 533 105 L 553 105 L 554 106 L 556 106 L 557 107 L 558 107 L 563 110 L 563 127 L 562 128 L 559 129 L 557 131 L 528 131 L 526 128 Z M 482 128 L 482 125 L 483 124 L 483 118 L 484 117 L 484 112 L 485 111 L 485 105 L 486 104 L 517 104 L 519 106 L 519 111 L 520 112 L 520 116 L 519 117 L 519 119 L 517 121 L 517 122 L 515 124 L 515 125 L 513 127 L 513 128 L 512 129 L 483 129 Z" fill="#8B2F68" fill-rule="evenodd" clip-rule="evenodd"/>
</svg>
