<?xml version="1.0" encoding="UTF-8"?>
<svg xmlns="http://www.w3.org/2000/svg" viewBox="0 0 1000 239" role="img" aria-labelledby="title">
  <title>Ipp Master Desarrollo Personal Comunidad Madrid en color vino</title>
  <path d="M 933 209 L 926 209 L 925 210 L 925 219 L 926 220 L 927 220 L 928 219 L 928 213 L 930 211 L 932 211 L 933 210 Z M 844 209 L 843 210 L 843 217 L 844 218 L 844 219 L 845 220 L 851 220 L 850 219 L 848 219 L 847 218 L 847 212 L 848 211 L 850 211 L 851 212 L 851 213 L 854 213 L 854 210 L 853 209 Z M 937 208 L 936 209 L 936 219 L 937 220 L 940 220 L 940 208 Z M 894 208 L 894 210 L 898 210 L 899 211 L 899 213 L 898 214 L 893 214 L 893 220 L 897 220 L 895 218 L 897 215 L 898 215 L 900 217 L 900 219 L 903 219 L 903 212 L 902 211 L 902 209 L 901 209 L 900 208 Z M 920 204 L 918 204 L 917 205 L 917 207 L 916 208 L 910 208 L 907 210 L 907 216 L 908 217 L 908 218 L 910 220 L 913 220 L 913 217 L 911 215 L 911 213 L 912 212 L 915 212 L 916 213 L 916 218 L 917 219 L 919 219 L 919 218 L 920 217 Z M 837 204 L 835 204 L 835 205 L 832 208 L 827 208 L 826 209 L 826 211 L 825 212 L 825 216 L 827 219 L 829 219 L 829 212 L 830 211 L 833 211 L 834 212 L 834 219 L 837 219 Z M 956 203 L 955 203 L 954 204 L 954 205 L 952 208 L 948 208 L 945 210 L 945 218 L 946 219 L 949 219 L 949 217 L 948 216 L 948 213 L 949 212 L 953 212 L 954 213 L 954 219 L 957 219 L 957 204 Z M 868 204 L 868 220 L 870 220 L 871 219 L 871 217 L 873 215 L 875 215 L 876 216 L 876 219 L 877 220 L 878 219 L 879 219 L 879 217 L 882 214 L 883 215 L 883 219 L 884 219 L 885 220 L 886 219 L 887 219 L 887 204 L 886 203 L 885 204 L 881 204 L 881 205 L 878 210 L 877 210 L 875 208 L 875 204 L 874 204 L 873 203 L 869 203 Z M 934 187 L 934 189 L 938 189 L 939 190 L 939 191 L 938 192 L 932 192 L 932 196 L 934 196 L 935 195 L 942 195 L 942 188 L 941 188 L 940 187 Z M 891 187 L 888 187 L 888 192 L 886 194 L 884 194 L 883 193 L 883 189 L 882 188 L 881 188 L 880 189 L 880 196 L 881 197 L 888 197 L 889 196 L 891 196 Z M 844 188 L 844 189 L 843 190 L 843 195 L 846 197 L 851 197 L 853 195 L 853 189 L 852 189 L 852 193 L 851 194 L 846 194 L 845 193 L 845 190 L 848 188 L 847 188 L 846 187 L 845 188 Z M 911 186 L 910 187 L 910 196 L 913 196 L 913 187 L 912 186 Z M 896 186 L 896 197 L 897 197 L 897 194 L 898 193 L 898 191 L 899 190 L 902 190 L 903 191 L 903 193 L 904 194 L 904 196 L 905 197 L 906 196 L 906 188 L 905 187 L 905 186 Z M 875 187 L 874 186 L 867 186 L 866 187 L 863 187 L 862 188 L 858 188 L 858 196 L 859 196 L 860 195 L 860 193 L 861 192 L 861 190 L 862 189 L 863 189 L 864 190 L 864 194 L 866 197 L 868 197 L 869 196 L 869 191 L 871 189 L 873 192 L 873 195 L 874 196 L 875 196 Z M 958 183 L 956 183 L 956 184 L 954 186 L 950 186 L 947 188 L 947 190 L 946 191 L 946 193 L 948 196 L 950 196 L 950 190 L 951 189 L 954 189 L 955 190 L 955 196 L 958 196 Z M 928 183 L 925 183 L 925 185 L 924 186 L 921 186 L 918 188 L 918 195 L 920 195 L 920 189 L 921 188 L 924 188 L 925 189 L 925 195 L 928 195 Z M 828 182 L 828 183 L 825 188 L 825 191 L 826 192 L 827 195 L 828 195 L 829 196 L 833 196 L 834 197 L 836 197 L 838 195 L 838 193 L 836 193 L 835 194 L 832 194 L 831 193 L 830 193 L 829 192 L 829 186 L 830 185 L 835 185 L 836 186 L 836 187 L 837 187 L 838 186 L 838 184 L 836 182 L 834 182 L 833 181 L 831 181 L 830 182 Z M 585 132 L 585 133 L 584 134 L 584 139 L 586 141 L 587 141 L 588 142 L 593 142 L 594 141 L 595 141 L 595 133 L 594 132 L 593 132 L 592 131 L 587 131 L 586 132 Z M 470 132 L 470 133 L 469 134 L 469 140 L 471 140 L 472 141 L 477 141 L 480 138 L 480 133 L 478 131 L 472 131 L 471 132 Z M 279 131 L 279 142 L 282 142 L 283 141 L 285 141 L 286 140 L 287 140 L 288 139 L 288 132 L 287 131 Z M 543 131 L 543 134 L 544 135 L 550 135 L 551 134 L 551 132 L 549 130 L 544 130 Z M 510 131 L 509 130 L 506 130 L 505 131 L 503 131 L 503 136 L 504 136 L 505 135 L 509 135 L 510 134 Z M 410 130 L 409 131 L 409 132 L 407 134 L 407 141 L 410 143 L 416 143 L 416 142 L 419 140 L 419 133 L 416 130 Z M 364 131 L 364 134 L 365 135 L 365 136 L 371 136 L 372 135 L 372 130 L 367 130 L 366 131 Z M 101 100 L 96 105 L 96 112 L 97 113 L 97 114 L 100 117 L 101 117 L 102 118 L 112 118 L 112 117 L 113 116 L 113 115 L 116 110 L 116 107 L 115 106 L 115 104 L 111 100 Z M 159 98 L 158 99 L 157 99 L 151 105 L 151 113 L 152 114 L 152 115 L 155 118 L 158 118 L 159 119 L 163 119 L 164 118 L 167 118 L 168 117 L 168 116 L 171 111 L 171 109 L 170 108 L 170 104 L 169 103 L 169 102 L 168 101 L 167 101 L 165 99 L 163 99 L 162 98 Z M 386 93 L 386 97 L 387 98 L 392 98 L 394 96 L 394 93 Z M 418 92 L 417 93 L 417 104 L 423 104 L 426 101 L 426 97 L 425 96 L 425 95 L 422 92 Z M 41 50 L 41 169 L 686 169 L 686 51 L 42 51 Z M 624 125 L 625 126 L 625 145 L 623 147 L 621 147 L 616 143 L 616 142 L 614 140 L 614 139 L 611 136 L 609 136 L 609 146 L 608 147 L 605 147 L 604 146 L 604 127 L 605 126 L 609 126 L 615 133 L 616 133 L 618 135 L 619 135 L 619 126 L 620 125 Z M 344 125 L 347 125 L 351 130 L 351 131 L 352 132 L 352 134 L 353 135 L 353 137 L 354 138 L 354 140 L 356 143 L 356 146 L 355 147 L 352 146 L 351 145 L 351 144 L 340 144 L 338 147 L 336 147 L 335 146 L 335 142 L 336 141 L 336 139 L 337 138 L 337 137 L 338 136 L 338 135 L 341 130 L 341 128 Z M 298 125 L 312 125 L 313 126 L 313 127 L 314 128 L 312 130 L 303 130 L 303 133 L 311 133 L 313 135 L 313 137 L 311 139 L 302 139 L 302 142 L 308 142 L 309 143 L 313 143 L 314 144 L 314 147 L 313 148 L 298 148 L 296 146 L 296 139 L 297 138 L 297 126 Z M 653 124 L 655 124 L 658 127 L 658 142 L 664 142 L 665 143 L 667 143 L 668 144 L 668 147 L 667 148 L 653 148 L 651 146 L 651 126 Z M 637 124 L 639 124 L 643 128 L 643 129 L 644 130 L 644 132 L 648 138 L 648 146 L 647 147 L 645 147 L 641 142 L 634 142 L 633 143 L 633 144 L 630 147 L 629 147 L 627 145 L 627 144 L 628 143 L 628 140 L 631 135 L 631 132 L 632 131 L 632 130 L 634 128 L 634 127 Z M 537 126 L 538 125 L 540 125 L 541 124 L 548 124 L 549 125 L 551 125 L 552 126 L 554 126 L 556 128 L 556 130 L 559 130 L 559 129 L 564 124 L 570 124 L 571 125 L 571 126 L 572 126 L 574 128 L 574 130 L 573 131 L 569 131 L 568 130 L 565 130 L 565 132 L 568 134 L 572 134 L 574 136 L 574 137 L 575 138 L 575 145 L 573 147 L 571 147 L 570 148 L 562 148 L 559 145 L 559 142 L 560 141 L 564 141 L 565 142 L 569 142 L 569 140 L 568 140 L 563 137 L 561 137 L 559 134 L 557 134 L 554 139 L 554 141 L 556 143 L 556 147 L 555 148 L 552 148 L 547 141 L 544 141 L 544 142 L 543 143 L 543 146 L 541 148 L 540 148 L 537 146 Z M 498 126 L 501 124 L 509 124 L 510 125 L 511 125 L 513 128 L 514 128 L 517 130 L 517 128 L 518 127 L 518 126 L 520 124 L 532 124 L 534 126 L 534 129 L 533 130 L 524 130 L 523 131 L 523 133 L 532 133 L 534 135 L 534 137 L 532 139 L 524 139 L 524 141 L 528 141 L 529 142 L 534 142 L 535 143 L 535 147 L 534 148 L 519 148 L 518 147 L 518 141 L 517 140 L 517 135 L 516 135 L 516 136 L 515 137 L 514 137 L 514 138 L 513 139 L 512 139 L 509 141 L 504 141 L 504 142 L 503 143 L 503 145 L 501 147 L 499 147 L 498 146 Z M 446 126 L 448 124 L 449 124 L 452 126 L 452 141 L 453 142 L 462 142 L 462 133 L 464 131 L 464 130 L 465 129 L 465 127 L 468 124 L 477 124 L 480 126 L 482 126 L 485 129 L 485 131 L 486 132 L 486 139 L 485 140 L 484 143 L 480 147 L 468 147 L 465 144 L 464 144 L 464 147 L 463 148 L 448 148 L 446 146 Z M 430 124 L 432 124 L 433 125 L 433 129 L 434 130 L 434 142 L 442 142 L 444 144 L 444 147 L 443 148 L 429 148 L 428 147 L 428 146 L 427 145 L 427 132 L 428 131 L 428 126 Z M 409 124 L 418 124 L 419 125 L 420 125 L 424 129 L 424 130 L 425 131 L 425 140 L 421 144 L 421 145 L 419 147 L 408 147 L 407 146 L 407 145 L 406 144 L 405 144 L 402 141 L 402 133 L 403 132 L 403 131 L 405 129 L 405 128 Z M 382 124 L 394 124 L 397 127 L 397 128 L 398 129 L 398 136 L 396 138 L 396 141 L 399 143 L 399 144 L 400 145 L 400 146 L 399 147 L 394 147 L 393 146 L 393 145 L 390 142 L 388 142 L 387 141 L 387 146 L 386 147 L 381 147 L 380 146 L 380 126 Z M 359 125 L 360 125 L 361 124 L 371 124 L 372 125 L 373 125 L 375 127 L 376 127 L 378 129 L 378 136 L 375 139 L 376 140 L 376 142 L 378 144 L 378 146 L 377 147 L 373 147 L 371 145 L 371 144 L 370 144 L 368 142 L 367 142 L 366 141 L 365 141 L 365 146 L 364 147 L 359 147 L 358 146 L 358 126 Z M 321 124 L 328 124 L 332 128 L 332 130 L 331 131 L 328 131 L 327 130 L 322 130 L 322 132 L 324 134 L 328 134 L 329 135 L 331 135 L 333 137 L 333 138 L 334 139 L 334 142 L 333 143 L 333 144 L 331 146 L 330 146 L 329 147 L 326 147 L 325 148 L 321 148 L 320 147 L 319 147 L 315 143 L 315 142 L 317 140 L 320 140 L 321 141 L 326 141 L 326 140 L 324 140 L 323 139 L 321 139 L 319 137 L 318 137 L 317 136 L 317 128 Z M 274 124 L 283 124 L 284 125 L 286 125 L 287 126 L 288 126 L 293 131 L 293 134 L 294 135 L 294 139 L 293 140 L 293 141 L 291 143 L 291 144 L 287 148 L 274 148 L 272 146 L 272 126 Z M 583 124 L 585 124 L 586 123 L 592 123 L 593 124 L 595 124 L 596 125 L 597 125 L 599 127 L 599 128 L 602 131 L 602 140 L 601 141 L 601 142 L 598 145 L 597 145 L 594 147 L 584 147 L 583 146 L 582 146 L 580 144 L 580 143 L 577 138 L 577 136 L 578 135 L 578 132 L 579 131 L 579 129 L 580 128 L 580 127 Z M 228 117 L 229 118 L 229 119 L 227 121 L 227 122 L 226 123 L 225 123 L 220 128 L 220 129 L 211 138 L 211 139 L 202 148 L 198 148 L 197 147 L 197 119 L 199 117 Z M 435 88 L 450 88 L 451 89 L 451 91 L 450 92 L 441 92 L 440 93 L 441 94 L 441 95 L 446 95 L 447 96 L 449 96 L 450 97 L 450 100 L 449 101 L 441 101 L 441 102 L 440 103 L 440 104 L 441 105 L 449 105 L 450 106 L 450 108 L 449 109 L 435 109 L 434 108 L 434 89 Z M 363 88 L 376 88 L 377 89 L 377 91 L 374 93 L 367 93 L 367 95 L 369 95 L 370 96 L 376 96 L 377 97 L 377 100 L 376 101 L 368 101 L 367 102 L 367 104 L 374 104 L 375 105 L 376 105 L 377 106 L 377 109 L 376 110 L 362 110 L 360 108 L 360 105 L 361 104 L 361 90 Z M 342 88 L 357 88 L 358 89 L 358 91 L 357 92 L 353 92 L 352 93 L 352 109 L 350 111 L 348 111 L 346 109 L 346 93 L 343 93 L 341 91 L 341 89 Z M 412 87 L 424 87 L 425 88 L 427 88 L 430 91 L 430 92 L 431 93 L 431 103 L 425 109 L 412 109 L 411 108 L 411 88 Z M 398 88 L 400 90 L 400 97 L 398 99 L 398 103 L 400 106 L 400 109 L 398 111 L 395 111 L 394 110 L 394 109 L 390 105 L 389 105 L 388 104 L 387 105 L 387 107 L 385 109 L 382 109 L 380 107 L 380 90 L 382 88 L 393 88 L 394 87 L 396 87 L 397 88 Z M 272 90 L 274 88 L 277 87 L 278 88 L 279 88 L 281 90 L 281 93 L 282 94 L 285 95 L 286 94 L 287 91 L 291 87 L 295 87 L 296 88 L 296 108 L 295 109 L 292 109 L 291 108 L 291 97 L 288 100 L 288 101 L 285 103 L 283 103 L 282 102 L 282 100 L 281 99 L 279 99 L 279 108 L 278 109 L 274 109 L 272 107 Z M 258 87 L 259 88 L 259 92 L 258 93 L 255 94 L 255 95 L 252 97 L 252 99 L 249 102 L 248 102 L 232 118 L 229 118 L 228 117 L 228 90 L 230 88 L 231 88 L 232 87 Z M 329 86 L 332 86 L 333 87 L 334 87 L 336 89 L 336 90 L 337 91 L 337 92 L 336 93 L 330 93 L 329 94 L 329 95 L 332 95 L 333 96 L 335 96 L 336 97 L 337 97 L 340 100 L 340 105 L 339 106 L 339 107 L 337 109 L 336 109 L 335 110 L 330 110 L 329 111 L 328 111 L 327 110 L 324 109 L 322 107 L 322 105 L 323 104 L 333 104 L 332 103 L 332 101 L 328 101 L 327 100 L 325 100 L 323 98 L 323 97 L 322 96 L 322 90 L 323 89 L 324 89 Z M 170 86 L 171 87 L 171 88 L 173 88 L 176 91 L 179 92 L 183 96 L 183 97 L 186 102 L 186 105 L 187 106 L 187 112 L 186 113 L 186 116 L 185 117 L 185 120 L 183 122 L 182 122 L 181 123 L 180 126 L 177 129 L 176 129 L 175 130 L 174 130 L 169 133 L 165 133 L 164 134 L 160 134 L 159 133 L 157 133 L 152 130 L 150 130 L 150 147 L 147 150 L 137 150 L 136 149 L 136 89 L 138 87 L 147 87 L 148 88 L 150 88 L 151 89 L 152 89 L 153 88 L 155 88 L 158 86 Z M 120 87 L 122 89 L 123 89 L 124 90 L 124 91 L 126 93 L 127 93 L 130 96 L 130 97 L 131 98 L 131 105 L 132 106 L 132 111 L 131 112 L 131 116 L 129 118 L 129 119 L 127 122 L 127 124 L 121 130 L 119 130 L 118 131 L 113 131 L 112 132 L 107 132 L 106 131 L 101 131 L 98 129 L 96 129 L 96 148 L 94 150 L 84 150 L 81 147 L 81 88 L 82 87 L 93 87 L 94 88 L 95 88 L 96 89 L 96 90 L 98 90 L 98 89 L 100 87 L 101 87 L 102 86 L 118 86 L 119 87 Z M 64 86 L 73 86 L 74 87 L 74 88 L 76 90 L 76 130 L 74 132 L 62 132 L 61 131 L 61 112 L 62 111 L 62 88 Z M 309 82 L 311 82 L 312 83 L 312 90 L 316 95 L 316 98 L 317 99 L 317 101 L 318 102 L 318 104 L 320 107 L 320 108 L 319 109 L 317 109 L 314 106 L 314 105 L 313 104 L 306 104 L 305 105 L 305 106 L 302 109 L 300 109 L 299 108 L 299 105 L 301 102 L 301 100 L 302 99 L 302 96 L 303 95 L 303 94 L 304 93 L 304 92 L 307 87 L 307 84 Z M 62 67 L 63 67 L 64 66 L 73 66 L 76 69 L 76 78 L 73 81 L 71 81 L 70 82 L 68 82 L 67 81 L 62 81 L 60 79 L 60 78 L 59 77 L 59 71 L 60 70 L 60 69 Z M 826 41 L 826 172 L 827 173 L 956 173 L 957 172 L 958 172 L 958 42 L 957 41 Z M 912 114 L 913 113 L 918 113 L 918 112 L 919 111 L 922 111 L 923 112 L 926 112 L 927 113 L 927 115 L 926 116 L 926 119 L 925 120 L 925 122 L 924 123 L 922 123 L 921 122 L 917 122 L 916 123 L 915 123 L 914 122 L 914 117 L 912 115 Z M 891 110 L 893 110 L 895 112 L 896 112 L 899 114 L 899 115 L 898 116 L 896 116 L 896 120 L 895 121 L 888 121 L 886 118 L 886 114 L 887 113 L 888 113 Z M 863 107 L 866 112 L 868 112 L 871 114 L 871 115 L 870 116 L 869 116 L 869 121 L 868 122 L 861 122 L 859 120 L 859 117 L 856 114 L 856 113 L 857 112 L 860 112 L 861 111 L 861 109 Z M 898 94 L 899 93 L 903 93 L 905 91 L 907 91 L 912 95 L 912 96 L 910 98 L 910 99 L 911 100 L 911 102 L 910 103 L 909 103 L 908 102 L 904 102 L 903 103 L 902 103 L 901 102 L 901 99 L 898 96 Z M 925 94 L 926 93 L 930 93 L 932 90 L 934 90 L 938 94 L 939 94 L 940 95 L 940 103 L 939 104 L 931 104 L 930 105 L 929 105 L 927 102 L 927 98 L 925 96 Z M 849 88 L 850 88 L 851 89 L 851 90 L 853 92 L 854 92 L 855 93 L 858 93 L 859 94 L 859 95 L 857 97 L 856 97 L 855 98 L 855 101 L 856 102 L 856 104 L 855 105 L 854 105 L 852 103 L 848 103 L 847 104 L 844 104 L 843 103 L 844 102 L 844 98 L 842 96 L 842 95 L 844 93 L 847 93 L 847 92 L 848 91 L 848 89 Z M 877 87 L 878 87 L 879 88 L 879 89 L 880 90 L 880 92 L 881 93 L 885 93 L 886 94 L 886 96 L 883 98 L 883 104 L 882 105 L 880 102 L 876 102 L 874 104 L 873 104 L 872 103 L 872 98 L 870 96 L 870 94 L 871 93 L 874 93 L 875 92 L 875 89 Z" fill="#8B2F68" fill-rule="evenodd" clip-rule="evenodd"/>
</svg>
