<?xml version="1.0" encoding="UTF-8"?>
<svg xmlns="http://www.w3.org/2000/svg" viewBox="0 0 1000 950" role="img" aria-labelledby="title">
  <title>Mayuben en color vino</title>
  <path d="M 170 718 L 170 736 L 171 737 L 171 767 L 174 767 L 175 768 L 175 769 L 177 771 L 241 771 L 242 770 L 244 770 L 245 769 L 246 769 L 256 759 L 256 756 L 257 755 L 257 740 L 258 739 L 257 738 L 257 732 L 242 718 L 242 717 L 240 715 L 240 714 L 239 713 L 174 713 L 171 716 L 171 717 Z M 176 649 L 176 696 L 181 696 L 182 697 L 233 697 L 234 696 L 236 696 L 237 695 L 238 695 L 240 693 L 241 693 L 242 692 L 242 691 L 244 689 L 245 689 L 245 688 L 247 685 L 247 653 L 245 653 L 242 651 L 240 651 L 239 650 L 238 650 L 236 648 L 236 647 L 235 646 L 195 646 L 194 647 L 178 647 Z M 447 197 L 447 199 L 446 200 L 446 202 L 445 203 L 445 209 L 444 210 L 444 216 L 442 218 L 440 218 L 439 219 L 438 219 L 438 220 L 437 221 L 437 223 L 436 224 L 436 232 L 435 233 L 435 235 L 434 236 L 434 237 L 432 239 L 432 240 L 430 242 L 430 243 L 428 246 L 428 248 L 427 249 L 427 250 L 425 253 L 425 255 L 424 256 L 424 259 L 423 260 L 423 268 L 424 269 L 478 269 L 478 255 L 475 252 L 475 250 L 474 249 L 474 247 L 472 244 L 472 242 L 471 241 L 470 238 L 468 236 L 468 235 L 467 234 L 467 233 L 464 228 L 464 224 L 463 223 L 463 218 L 462 217 L 462 213 L 461 212 L 461 211 L 460 210 L 460 209 L 459 208 L 459 207 L 458 206 L 457 203 L 455 201 L 455 200 L 454 199 L 452 199 L 451 198 L 449 198 L 448 197 Z M 41 41 L 41 908 L 958 908 L 958 41 Z M 545 630 L 555 630 L 556 629 L 561 629 L 562 630 L 568 642 L 568 644 L 571 649 L 576 652 L 578 654 L 582 662 L 586 666 L 588 666 L 591 669 L 591 670 L 589 671 L 589 679 L 591 683 L 593 685 L 593 686 L 602 694 L 610 709 L 617 716 L 621 728 L 627 734 L 628 734 L 635 740 L 638 746 L 638 748 L 641 752 L 646 753 L 649 755 L 649 632 L 653 630 L 665 630 L 666 631 L 666 721 L 665 722 L 665 769 L 664 770 L 664 787 L 663 788 L 646 788 L 637 779 L 635 774 L 629 767 L 629 766 L 623 758 L 619 747 L 617 745 L 617 744 L 616 744 L 614 742 L 614 741 L 613 741 L 611 739 L 610 737 L 610 732 L 609 731 L 609 724 L 608 723 L 608 721 L 607 720 L 603 720 L 599 717 L 592 704 L 591 700 L 588 698 L 586 698 L 584 696 L 584 691 L 583 690 L 583 686 L 582 685 L 582 683 L 578 682 L 576 680 L 574 674 L 571 671 L 570 671 L 567 668 L 565 668 L 562 666 L 558 666 L 558 786 L 556 788 L 554 788 L 553 787 L 549 787 L 548 786 L 544 786 L 543 785 L 543 632 Z M 358 629 L 466 629 L 469 632 L 469 641 L 462 647 L 458 647 L 457 648 L 421 648 L 420 647 L 376 647 L 376 696 L 387 696 L 388 697 L 443 697 L 444 698 L 458 698 L 461 701 L 461 710 L 456 715 L 413 715 L 412 716 L 379 716 L 377 717 L 375 719 L 375 755 L 374 756 L 374 772 L 378 772 L 379 773 L 394 773 L 395 774 L 453 774 L 454 775 L 462 775 L 463 776 L 463 787 L 462 788 L 358 788 L 355 785 L 355 631 Z M 155 629 L 193 629 L 194 630 L 234 630 L 235 631 L 238 631 L 239 632 L 240 632 L 245 635 L 247 635 L 248 636 L 251 636 L 254 638 L 256 638 L 264 646 L 265 646 L 265 645 L 266 644 L 267 644 L 268 645 L 268 646 L 271 651 L 271 654 L 272 655 L 272 682 L 270 684 L 270 685 L 267 688 L 267 689 L 265 691 L 265 692 L 263 694 L 263 695 L 262 696 L 261 696 L 259 698 L 257 698 L 256 699 L 255 699 L 255 701 L 254 702 L 254 706 L 255 706 L 256 707 L 259 707 L 260 708 L 261 708 L 266 713 L 266 714 L 267 715 L 267 716 L 270 721 L 270 723 L 272 725 L 273 728 L 274 728 L 277 730 L 277 758 L 275 760 L 275 762 L 274 763 L 274 767 L 271 772 L 270 772 L 268 774 L 267 774 L 264 777 L 263 777 L 262 778 L 261 778 L 260 779 L 259 779 L 258 780 L 255 781 L 255 783 L 254 784 L 252 784 L 251 785 L 247 785 L 246 786 L 245 786 L 245 787 L 243 790 L 157 790 L 155 788 L 155 692 L 154 691 L 154 630 Z M 472 400 L 473 401 L 473 511 L 472 512 L 472 519 L 471 520 L 471 523 L 469 527 L 469 530 L 468 531 L 468 533 L 466 536 L 466 538 L 464 540 L 461 546 L 459 548 L 456 549 L 456 551 L 446 561 L 442 563 L 438 563 L 437 564 L 399 564 L 398 563 L 388 563 L 384 561 L 381 561 L 367 554 L 355 542 L 355 541 L 352 538 L 351 535 L 349 533 L 349 531 L 348 530 L 348 523 L 347 522 L 347 405 L 348 404 L 361 404 L 363 402 L 366 404 L 366 511 L 365 512 L 365 516 L 366 517 L 367 524 L 369 528 L 373 533 L 375 531 L 376 532 L 376 538 L 377 540 L 383 546 L 393 551 L 406 551 L 407 550 L 436 550 L 437 548 L 440 545 L 443 545 L 444 544 L 448 544 L 449 542 L 449 539 L 450 538 L 450 536 L 448 534 L 449 532 L 449 529 L 453 525 L 454 525 L 454 513 L 455 512 L 455 439 L 456 438 L 456 403 L 460 401 L 468 401 L 469 400 Z M 276 400 L 277 401 L 277 408 L 276 409 L 273 409 L 273 411 L 272 412 L 272 416 L 271 417 L 271 418 L 270 419 L 270 420 L 269 421 L 269 422 L 268 423 L 267 426 L 255 438 L 255 439 L 252 442 L 252 443 L 251 444 L 251 451 L 249 453 L 249 455 L 248 456 L 247 459 L 245 461 L 244 464 L 241 467 L 241 468 L 239 470 L 238 470 L 235 473 L 235 474 L 234 475 L 234 477 L 231 480 L 230 480 L 229 479 L 228 480 L 228 481 L 226 483 L 225 486 L 223 488 L 222 488 L 222 489 L 220 491 L 219 491 L 219 492 L 218 493 L 218 495 L 217 496 L 217 534 L 216 535 L 216 560 L 214 563 L 203 563 L 200 560 L 200 507 L 199 506 L 199 496 L 196 496 L 194 494 L 194 489 L 193 489 L 191 487 L 188 486 L 183 481 L 183 480 L 181 478 L 181 477 L 180 476 L 180 475 L 179 474 L 179 473 L 178 472 L 177 469 L 173 464 L 173 462 L 171 460 L 171 459 L 169 457 L 169 456 L 167 454 L 167 453 L 165 451 L 165 450 L 163 448 L 163 447 L 159 442 L 159 441 L 160 440 L 161 440 L 161 437 L 160 436 L 160 433 L 158 431 L 158 430 L 157 429 L 156 426 L 152 421 L 152 419 L 149 414 L 149 412 L 148 411 L 148 409 L 144 409 L 142 407 L 142 403 L 143 402 L 151 402 L 152 403 L 156 403 L 157 404 L 158 404 L 161 407 L 161 408 L 163 410 L 164 413 L 166 415 L 166 416 L 168 418 L 168 419 L 169 420 L 172 421 L 175 424 L 176 424 L 180 428 L 180 429 L 181 430 L 182 433 L 184 435 L 184 436 L 188 441 L 189 444 L 192 447 L 192 448 L 196 452 L 196 453 L 200 458 L 200 459 L 202 462 L 202 464 L 203 465 L 203 467 L 204 468 L 204 473 L 205 472 L 208 472 L 211 470 L 213 470 L 216 468 L 216 466 L 218 464 L 218 462 L 219 461 L 219 459 L 220 458 L 220 457 L 221 456 L 221 455 L 222 454 L 222 453 L 223 452 L 224 449 L 231 442 L 232 442 L 234 440 L 235 440 L 239 436 L 239 435 L 243 430 L 243 428 L 245 425 L 245 423 L 246 422 L 246 421 L 247 420 L 247 419 L 248 418 L 248 417 L 249 416 L 250 413 L 252 411 L 253 408 L 255 406 L 256 403 L 259 400 Z M 445 175 L 461 175 L 464 178 L 464 179 L 466 182 L 466 184 L 467 185 L 467 188 L 469 191 L 469 193 L 470 194 L 470 196 L 472 198 L 472 200 L 473 201 L 473 202 L 477 207 L 480 207 L 481 208 L 481 209 L 483 211 L 483 212 L 485 214 L 485 217 L 486 218 L 486 220 L 487 221 L 487 225 L 488 226 L 488 229 L 489 230 L 489 233 L 490 234 L 490 236 L 491 237 L 491 239 L 493 242 L 493 244 L 495 247 L 495 249 L 497 251 L 497 253 L 498 254 L 498 256 L 501 261 L 501 264 L 502 265 L 502 267 L 503 268 L 503 273 L 502 274 L 502 276 L 503 276 L 504 277 L 507 277 L 510 282 L 510 286 L 511 287 L 511 289 L 512 290 L 512 294 L 513 295 L 513 299 L 514 300 L 514 303 L 515 304 L 515 306 L 516 307 L 516 310 L 518 313 L 518 316 L 519 317 L 519 320 L 521 323 L 521 326 L 522 327 L 522 330 L 523 331 L 523 332 L 521 334 L 505 334 L 504 333 L 504 317 L 503 316 L 503 314 L 502 313 L 502 312 L 499 312 L 497 310 L 497 303 L 496 302 L 496 299 L 495 298 L 495 297 L 493 295 L 492 292 L 488 287 L 488 286 L 471 286 L 470 287 L 450 287 L 449 288 L 417 288 L 417 290 L 415 293 L 415 295 L 414 296 L 414 298 L 412 301 L 412 303 L 410 305 L 409 308 L 407 310 L 407 314 L 406 315 L 406 318 L 405 319 L 405 322 L 404 323 L 404 325 L 398 331 L 397 331 L 396 332 L 386 332 L 385 331 L 385 315 L 386 314 L 386 312 L 387 311 L 387 310 L 392 306 L 392 305 L 393 304 L 393 302 L 395 299 L 395 297 L 397 294 L 397 292 L 398 291 L 398 286 L 399 285 L 399 283 L 400 282 L 400 279 L 401 278 L 401 274 L 402 273 L 402 271 L 403 270 L 403 264 L 404 263 L 404 260 L 406 257 L 406 255 L 407 254 L 407 253 L 410 250 L 410 249 L 411 248 L 411 247 L 412 246 L 412 245 L 415 240 L 415 238 L 416 237 L 416 235 L 418 232 L 418 228 L 419 227 L 419 221 L 420 220 L 420 218 L 421 217 L 421 214 L 422 213 L 422 210 L 423 209 L 423 208 L 424 207 L 425 204 L 427 202 L 427 201 L 428 200 L 429 200 L 430 201 L 430 200 L 431 199 L 431 198 L 432 197 L 432 196 L 433 195 L 433 194 L 434 193 L 434 192 L 435 191 L 436 188 L 438 186 L 438 185 L 440 183 L 441 180 Z M 156 173 L 180 173 L 186 179 L 185 184 L 190 197 L 195 200 L 198 206 L 197 212 L 199 217 L 199 223 L 200 224 L 201 232 L 204 242 L 208 245 L 210 254 L 216 260 L 216 268 L 218 271 L 218 274 L 220 277 L 224 292 L 229 301 L 239 301 L 242 297 L 244 287 L 252 267 L 253 256 L 255 250 L 255 244 L 258 233 L 263 224 L 267 224 L 268 220 L 273 213 L 274 201 L 278 194 L 282 181 L 284 179 L 287 179 L 289 176 L 310 176 L 313 178 L 313 332 L 311 334 L 300 334 L 298 332 L 297 258 L 296 257 L 296 207 L 294 206 L 290 206 L 281 223 L 279 229 L 278 238 L 276 241 L 273 259 L 270 264 L 265 268 L 264 278 L 262 280 L 261 288 L 258 290 L 257 294 L 255 296 L 254 301 L 249 311 L 247 320 L 241 332 L 228 332 L 223 325 L 220 318 L 218 319 L 215 314 L 215 309 L 213 304 L 212 296 L 205 282 L 201 266 L 196 262 L 197 256 L 195 253 L 194 244 L 192 240 L 190 231 L 187 225 L 179 218 L 178 208 L 177 207 L 171 207 L 171 331 L 168 332 L 167 334 L 157 334 L 154 331 L 154 175 Z" fill="#8B2F68" fill-rule="evenodd" clip-rule="evenodd"/>
</svg>
