<?xml version="1.0" encoding="UTF-8"?>
<svg xmlns="http://www.w3.org/2000/svg" viewBox="0 0 1000 921" role="img" aria-labelledby="title">
  <title>Yoga Alliance en color vino</title>
  <path d="M 132 714 L 132 716 L 131 717 L 131 727 L 130 728 L 130 733 L 129 734 L 129 742 L 130 742 L 131 743 L 133 743 L 134 744 L 134 746 L 135 747 L 135 750 L 136 751 L 136 755 L 140 755 L 141 756 L 142 756 L 143 757 L 143 758 L 144 758 L 149 763 L 150 763 L 154 767 L 155 767 L 156 768 L 156 769 L 157 769 L 158 770 L 158 771 L 159 772 L 159 775 L 161 778 L 161 780 L 162 781 L 162 783 L 163 784 L 164 787 L 166 789 L 167 789 L 172 793 L 175 793 L 180 797 L 180 793 L 179 792 L 178 792 L 177 791 L 175 791 L 174 790 L 174 785 L 172 785 L 171 784 L 169 784 L 167 782 L 167 780 L 168 779 L 168 777 L 170 775 L 172 775 L 173 776 L 173 778 L 180 778 L 181 779 L 181 786 L 182 787 L 184 787 L 187 789 L 189 789 L 190 790 L 191 790 L 192 791 L 193 791 L 194 792 L 197 793 L 200 796 L 201 799 L 204 802 L 204 803 L 205 804 L 205 814 L 204 815 L 202 815 L 201 814 L 199 814 L 198 813 L 197 813 L 196 812 L 196 809 L 194 807 L 193 807 L 192 806 L 190 806 L 187 804 L 185 804 L 186 805 L 187 808 L 198 819 L 199 819 L 200 820 L 200 821 L 203 824 L 203 825 L 205 825 L 206 826 L 209 826 L 212 828 L 211 827 L 211 824 L 210 823 L 210 820 L 209 819 L 209 818 L 211 816 L 212 816 L 213 817 L 215 817 L 220 820 L 222 820 L 223 821 L 225 821 L 226 822 L 228 822 L 229 823 L 232 824 L 230 822 L 227 821 L 225 819 L 224 819 L 222 817 L 221 817 L 217 813 L 216 813 L 212 809 L 211 809 L 210 808 L 210 807 L 207 804 L 207 803 L 205 801 L 204 798 L 192 786 L 191 786 L 188 783 L 187 783 L 186 782 L 186 779 L 183 776 L 183 775 L 182 775 L 180 773 L 179 773 L 178 772 L 178 769 L 177 768 L 176 768 L 174 766 L 173 766 L 169 762 L 169 761 L 167 759 L 166 756 L 164 754 L 164 752 L 163 751 L 163 749 L 159 745 L 157 745 L 156 744 L 156 737 L 150 731 L 150 730 L 147 727 L 147 726 L 146 725 L 145 722 L 143 720 L 142 717 L 139 715 L 136 715 L 135 714 Z M 491 95 L 488 96 L 489 99 L 441 102 L 425 108 L 395 112 L 369 125 L 350 128 L 323 142 L 306 147 L 303 153 L 299 153 L 295 158 L 280 166 L 259 183 L 217 227 L 208 234 L 203 235 L 199 245 L 186 257 L 164 286 L 164 298 L 159 300 L 150 314 L 141 343 L 136 348 L 134 359 L 129 364 L 129 382 L 124 383 L 119 388 L 119 415 L 112 420 L 110 451 L 104 454 L 104 531 L 107 562 L 129 620 L 129 634 L 133 640 L 133 643 L 130 643 L 138 654 L 156 695 L 161 698 L 161 702 L 171 712 L 171 716 L 179 721 L 189 743 L 204 753 L 214 772 L 225 779 L 234 789 L 244 790 L 245 796 L 251 799 L 256 807 L 264 807 L 267 801 L 277 799 L 281 806 L 287 809 L 288 813 L 297 817 L 299 826 L 311 824 L 313 831 L 339 833 L 336 844 L 353 846 L 351 851 L 362 852 L 368 859 L 386 859 L 387 866 L 409 865 L 421 869 L 457 868 L 464 874 L 495 877 L 496 874 L 504 874 L 505 876 L 540 876 L 544 879 L 549 874 L 558 874 L 558 871 L 564 868 L 587 866 L 596 861 L 607 862 L 608 859 L 614 859 L 616 853 L 632 853 L 634 846 L 642 848 L 644 844 L 658 843 L 665 837 L 672 837 L 674 832 L 680 831 L 683 833 L 688 814 L 700 814 L 703 818 L 709 808 L 718 805 L 720 799 L 731 799 L 733 794 L 738 792 L 738 787 L 746 784 L 747 779 L 755 780 L 755 770 L 759 766 L 766 764 L 766 751 L 771 746 L 778 751 L 773 758 L 774 767 L 769 766 L 770 773 L 768 774 L 767 783 L 781 768 L 789 764 L 791 766 L 799 760 L 802 753 L 802 736 L 814 735 L 818 731 L 822 716 L 827 715 L 838 699 L 840 691 L 845 689 L 848 681 L 858 669 L 861 661 L 863 634 L 873 633 L 876 630 L 878 615 L 882 611 L 883 587 L 890 576 L 891 547 L 895 540 L 895 489 L 893 484 L 895 469 L 889 461 L 889 457 L 893 452 L 894 429 L 889 417 L 887 403 L 882 394 L 881 380 L 876 372 L 872 350 L 863 332 L 862 320 L 854 313 L 852 297 L 839 283 L 836 275 L 830 271 L 826 255 L 819 252 L 812 245 L 807 235 L 768 192 L 759 187 L 748 176 L 704 150 L 696 150 L 682 140 L 674 140 L 669 132 L 657 129 L 656 125 L 644 125 L 634 119 L 618 114 L 615 108 L 583 108 L 566 102 Z M 214 748 L 215 748 L 216 747 L 217 747 L 218 748 L 220 748 L 223 751 L 223 752 L 226 757 L 226 760 L 227 761 L 227 763 L 230 765 L 233 765 L 235 767 L 235 769 L 236 770 L 237 770 L 238 771 L 240 771 L 241 772 L 241 775 L 242 776 L 242 778 L 247 781 L 247 786 L 246 787 L 244 787 L 243 786 L 239 786 L 238 785 L 235 785 L 234 784 L 232 784 L 226 778 L 226 777 L 225 776 L 224 773 L 222 771 L 222 769 L 220 767 L 220 765 L 219 764 L 219 763 L 217 761 L 217 760 L 214 757 L 213 757 L 212 756 L 212 750 Z M 628 737 L 629 736 L 633 736 L 634 737 L 635 737 L 637 739 L 637 740 L 638 740 L 639 741 L 642 741 L 643 742 L 651 742 L 652 741 L 656 741 L 657 740 L 662 740 L 665 738 L 667 738 L 668 737 L 670 737 L 671 738 L 671 742 L 670 743 L 665 743 L 664 744 L 663 744 L 660 747 L 659 747 L 657 749 L 653 749 L 652 750 L 646 750 L 645 749 L 639 749 L 638 748 L 636 748 L 635 747 L 633 747 L 632 746 L 629 745 L 628 744 Z M 784 725 L 785 726 L 785 728 L 788 728 L 789 729 L 789 748 L 788 749 L 786 749 L 785 750 L 782 750 L 781 751 L 779 751 L 778 750 L 778 749 L 779 748 L 781 748 L 782 747 L 783 747 L 783 746 L 782 745 L 781 742 L 780 741 L 779 741 L 777 739 L 777 730 L 778 729 L 778 728 L 781 725 Z M 284 709 L 286 707 L 290 707 L 291 708 L 291 722 L 311 722 L 314 724 L 315 724 L 315 710 L 316 709 L 318 709 L 320 711 L 320 712 L 322 715 L 322 717 L 323 718 L 323 719 L 329 725 L 329 727 L 330 728 L 330 729 L 331 730 L 331 731 L 332 732 L 333 735 L 336 738 L 336 745 L 335 746 L 329 746 L 327 744 L 327 741 L 326 740 L 326 738 L 317 729 L 287 729 L 283 733 L 281 733 L 280 734 L 279 734 L 278 733 L 278 725 L 279 724 L 279 722 L 280 721 L 280 719 L 281 718 L 281 716 L 282 715 L 282 713 L 284 711 Z M 556 700 L 557 699 L 558 699 L 559 700 L 562 701 L 566 705 L 567 705 L 569 707 L 570 707 L 582 719 L 582 720 L 589 727 L 589 731 L 588 732 L 586 732 L 584 730 L 581 729 L 573 721 L 570 720 L 567 717 L 566 717 L 558 708 L 558 707 L 556 704 Z M 441 686 L 446 686 L 449 688 L 449 741 L 448 742 L 441 742 L 440 741 L 440 687 Z M 346 687 L 349 687 L 350 686 L 353 686 L 355 688 L 355 738 L 357 740 L 358 743 L 376 743 L 378 745 L 378 748 L 377 749 L 377 750 L 375 752 L 354 752 L 349 747 L 349 746 L 346 743 L 346 742 L 344 742 L 343 741 L 343 719 L 344 718 L 344 702 L 345 701 L 345 688 Z M 689 685 L 695 685 L 696 686 L 696 701 L 697 702 L 697 705 L 698 706 L 707 706 L 708 707 L 708 717 L 707 718 L 698 718 L 698 719 L 697 720 L 697 735 L 698 736 L 698 739 L 699 739 L 700 740 L 712 740 L 713 741 L 718 741 L 719 742 L 719 748 L 718 749 L 718 750 L 716 752 L 693 752 L 691 750 L 691 749 L 690 748 L 690 746 L 691 745 L 694 745 L 692 745 L 689 743 L 689 713 L 688 712 L 688 692 L 687 691 L 687 687 Z M 600 685 L 605 685 L 606 686 L 606 745 L 605 746 L 604 746 L 603 745 L 598 745 L 597 744 L 596 744 L 595 743 L 595 740 L 594 739 L 594 734 L 597 731 L 597 730 L 598 729 L 598 698 L 599 697 L 599 686 Z M 396 685 L 402 685 L 403 686 L 403 689 L 404 690 L 404 709 L 405 710 L 405 741 L 423 741 L 424 742 L 424 743 L 425 744 L 425 746 L 426 747 L 426 748 L 425 749 L 397 749 L 396 748 L 396 744 L 395 743 L 395 686 Z M 538 684 L 543 684 L 544 685 L 545 685 L 546 686 L 546 687 L 547 688 L 547 690 L 548 691 L 548 696 L 546 698 L 546 746 L 545 747 L 541 747 L 540 746 L 539 746 L 537 744 L 537 685 Z M 503 682 L 504 683 L 504 685 L 506 687 L 506 689 L 508 691 L 508 694 L 506 697 L 503 696 L 503 700 L 502 701 L 501 701 L 499 699 L 499 698 L 498 697 L 495 697 L 492 700 L 492 701 L 490 703 L 490 704 L 487 709 L 487 714 L 486 715 L 486 721 L 505 721 L 507 719 L 509 719 L 509 712 L 510 711 L 513 711 L 516 714 L 516 716 L 517 717 L 518 720 L 521 723 L 521 724 L 523 726 L 523 727 L 524 728 L 524 736 L 523 737 L 518 737 L 516 735 L 516 731 L 515 730 L 515 729 L 480 729 L 475 734 L 475 735 L 473 737 L 473 738 L 472 739 L 472 742 L 470 744 L 469 744 L 468 745 L 464 745 L 463 744 L 463 741 L 464 740 L 464 737 L 467 734 L 469 734 L 469 733 L 472 728 L 472 726 L 473 725 L 473 723 L 474 722 L 474 719 L 475 718 L 475 716 L 476 715 L 476 710 L 477 709 L 477 707 L 478 706 L 478 705 L 479 704 L 480 704 L 482 702 L 482 700 L 484 697 L 484 695 L 485 694 L 485 693 L 486 692 L 486 691 L 487 690 L 487 689 L 488 688 L 488 687 L 489 686 L 490 683 L 491 682 Z M 299 682 L 303 682 L 304 683 L 307 683 L 309 685 L 309 686 L 311 688 L 311 689 L 314 694 L 314 698 L 315 699 L 314 700 L 314 702 L 313 703 L 309 703 L 307 701 L 307 699 L 306 698 L 306 696 L 305 695 L 302 695 L 301 694 L 299 694 L 299 702 L 298 703 L 297 703 L 294 705 L 292 705 L 290 703 L 290 698 L 291 697 L 291 693 L 295 689 L 295 688 L 296 687 L 297 684 Z M 623 571 L 624 572 L 624 575 L 623 576 L 623 577 L 624 578 L 623 579 L 619 579 L 618 580 L 617 583 L 615 585 L 615 590 L 614 591 L 614 601 L 613 602 L 613 606 L 614 607 L 614 611 L 615 612 L 615 613 L 616 614 L 617 617 L 626 626 L 626 628 L 625 629 L 625 630 L 623 632 L 604 632 L 597 625 L 597 624 L 595 622 L 595 621 L 593 618 L 593 615 L 592 614 L 592 592 L 593 591 L 593 589 L 594 588 L 594 586 L 596 584 L 596 583 L 603 576 L 604 576 L 607 573 L 608 573 L 609 572 L 618 572 L 619 571 Z M 621 518 L 622 519 L 622 525 L 619 528 L 619 532 L 618 533 L 618 544 L 614 548 L 605 548 L 603 546 L 603 541 L 604 540 L 604 535 L 605 534 L 605 532 L 607 529 L 607 527 L 610 524 L 610 523 L 615 518 Z M 394 518 L 395 519 L 395 537 L 394 538 L 394 597 L 393 598 L 393 649 L 392 650 L 392 658 L 390 660 L 390 661 L 389 662 L 376 662 L 375 661 L 375 659 L 377 656 L 377 654 L 378 653 L 378 651 L 379 650 L 380 650 L 380 644 L 379 643 L 379 626 L 378 625 L 378 624 L 369 624 L 368 623 L 368 622 L 369 621 L 369 620 L 374 615 L 374 614 L 376 611 L 376 609 L 377 608 L 377 607 L 378 606 L 379 606 L 379 547 L 380 546 L 380 523 L 381 522 L 384 522 L 385 521 L 386 521 L 391 518 Z M 626 513 L 634 513 L 635 512 L 645 512 L 646 513 L 649 513 L 650 514 L 653 515 L 655 517 L 656 517 L 657 518 L 657 520 L 659 520 L 660 521 L 661 521 L 663 523 L 663 524 L 664 525 L 664 530 L 666 532 L 666 594 L 667 595 L 667 620 L 669 620 L 670 621 L 678 621 L 679 622 L 680 622 L 681 623 L 681 628 L 682 629 L 682 631 L 681 632 L 655 632 L 654 631 L 654 628 L 652 626 L 652 625 L 651 624 L 651 616 L 648 613 L 647 613 L 646 612 L 646 605 L 647 604 L 647 585 L 646 584 L 646 574 L 645 573 L 642 572 L 640 570 L 640 568 L 642 566 L 643 566 L 645 564 L 646 564 L 646 561 L 648 558 L 648 551 L 649 550 L 649 537 L 648 536 L 648 531 L 647 530 L 647 526 L 644 521 L 638 521 L 637 520 L 625 520 L 624 519 L 624 516 Z M 441 513 L 446 513 L 447 512 L 464 512 L 465 513 L 468 513 L 471 515 L 473 515 L 475 517 L 478 518 L 479 519 L 479 521 L 480 522 L 481 522 L 484 524 L 484 525 L 485 526 L 485 529 L 486 530 L 486 532 L 487 533 L 487 536 L 488 537 L 488 539 L 489 540 L 489 551 L 490 552 L 490 594 L 489 595 L 489 600 L 487 603 L 487 605 L 486 606 L 485 609 L 483 611 L 483 612 L 484 613 L 484 615 L 481 618 L 481 619 L 478 622 L 478 623 L 476 625 L 475 625 L 470 629 L 467 630 L 467 633 L 466 634 L 438 634 L 437 633 L 436 633 L 435 632 L 432 631 L 430 629 L 429 629 L 418 618 L 418 614 L 417 613 L 417 609 L 416 608 L 416 603 L 415 602 L 415 587 L 414 586 L 414 561 L 415 560 L 415 546 L 416 545 L 416 539 L 417 538 L 417 530 L 418 529 L 418 528 L 420 526 L 422 526 L 423 525 L 423 524 L 425 522 L 426 522 L 428 520 L 429 520 L 430 519 L 433 519 L 434 518 L 436 518 L 438 520 L 438 524 L 437 525 L 437 531 L 436 532 L 436 534 L 435 535 L 435 538 L 433 540 L 430 540 L 430 558 L 431 559 L 431 576 L 432 577 L 432 604 L 433 605 L 433 609 L 434 610 L 434 612 L 435 613 L 435 614 L 436 615 L 437 618 L 441 622 L 445 622 L 446 623 L 454 623 L 455 622 L 457 622 L 458 621 L 461 620 L 466 615 L 466 614 L 468 611 L 468 608 L 470 605 L 470 603 L 471 602 L 472 602 L 474 599 L 474 593 L 475 592 L 475 581 L 474 580 L 474 578 L 473 577 L 473 570 L 472 569 L 472 531 L 471 530 L 470 530 L 469 529 L 467 529 L 466 528 L 466 527 L 463 522 L 463 520 L 441 520 L 440 519 L 440 514 Z M 531 511 L 558 511 L 560 514 L 561 514 L 562 515 L 565 515 L 567 517 L 570 517 L 571 518 L 572 518 L 574 520 L 575 520 L 577 522 L 577 523 L 579 526 L 579 529 L 580 530 L 580 544 L 579 545 L 578 548 L 576 550 L 563 550 L 562 549 L 562 536 L 561 535 L 561 531 L 560 530 L 560 527 L 555 522 L 554 522 L 553 521 L 553 519 L 540 519 L 539 520 L 536 520 L 535 521 L 532 522 L 527 527 L 526 527 L 526 528 L 524 530 L 524 531 L 523 532 L 523 607 L 525 610 L 527 610 L 528 611 L 528 612 L 529 613 L 529 615 L 536 622 L 551 622 L 554 619 L 555 619 L 559 615 L 559 614 L 560 613 L 560 604 L 561 603 L 561 585 L 562 584 L 562 581 L 563 580 L 563 579 L 565 577 L 566 577 L 567 576 L 576 576 L 578 578 L 578 655 L 577 656 L 575 656 L 574 659 L 569 663 L 568 663 L 567 662 L 567 661 L 558 661 L 557 660 L 557 659 L 558 658 L 558 656 L 559 655 L 559 653 L 560 652 L 560 630 L 559 630 L 558 629 L 558 628 L 556 628 L 555 629 L 551 629 L 550 630 L 528 630 L 527 629 L 525 629 L 523 627 L 522 627 L 516 621 L 516 620 L 514 618 L 514 617 L 512 614 L 512 612 L 511 611 L 511 608 L 510 607 L 510 599 L 509 598 L 509 541 L 510 540 L 510 533 L 511 532 L 511 530 L 513 528 L 513 527 L 520 520 L 521 520 L 521 519 L 527 513 L 528 513 Z M 318 511 L 336 511 L 344 519 L 344 523 L 345 524 L 345 528 L 346 529 L 346 545 L 345 546 L 345 570 L 344 571 L 344 620 L 345 620 L 346 621 L 347 621 L 352 624 L 353 627 L 351 629 L 346 629 L 345 628 L 343 628 L 342 627 L 340 627 L 335 622 L 334 622 L 329 617 L 329 616 L 328 615 L 328 605 L 327 604 L 327 528 L 326 527 L 326 521 L 325 520 L 324 520 L 323 519 L 317 519 L 316 518 L 316 513 Z M 416 333 L 417 332 L 427 332 L 428 333 L 428 338 L 431 339 L 432 340 L 432 342 L 438 345 L 445 345 L 446 346 L 451 346 L 452 347 L 461 347 L 462 348 L 469 348 L 470 346 L 470 344 L 473 339 L 483 339 L 484 338 L 493 338 L 494 337 L 496 337 L 499 341 L 500 346 L 499 347 L 488 347 L 487 348 L 485 348 L 475 358 L 475 381 L 478 385 L 480 390 L 482 392 L 484 396 L 489 401 L 488 403 L 496 411 L 497 411 L 500 414 L 502 414 L 503 415 L 505 415 L 509 417 L 516 423 L 520 423 L 521 424 L 523 424 L 524 425 L 527 425 L 531 427 L 538 427 L 539 428 L 556 428 L 557 427 L 562 427 L 564 425 L 566 425 L 568 423 L 571 422 L 595 398 L 598 398 L 599 396 L 599 392 L 600 391 L 602 391 L 610 387 L 613 384 L 613 383 L 618 379 L 620 379 L 624 377 L 627 377 L 628 376 L 628 370 L 622 364 L 620 363 L 617 363 L 615 361 L 612 360 L 601 350 L 599 349 L 599 347 L 600 346 L 600 338 L 602 335 L 607 335 L 615 343 L 616 343 L 619 346 L 620 346 L 630 357 L 631 357 L 638 363 L 644 366 L 649 367 L 650 368 L 654 368 L 656 370 L 656 376 L 655 377 L 647 377 L 645 379 L 637 382 L 635 384 L 635 385 L 630 390 L 626 392 L 617 401 L 617 402 L 615 404 L 613 405 L 610 405 L 606 407 L 603 413 L 600 416 L 600 417 L 590 426 L 589 426 L 582 433 L 581 433 L 580 435 L 579 435 L 572 441 L 570 442 L 568 442 L 561 447 L 559 447 L 556 449 L 532 449 L 529 446 L 529 445 L 527 444 L 523 444 L 522 443 L 519 443 L 517 442 L 516 440 L 512 436 L 494 427 L 479 412 L 478 412 L 475 409 L 472 408 L 470 406 L 470 404 L 468 401 L 468 398 L 465 392 L 463 390 L 463 388 L 461 385 L 461 355 L 456 355 L 452 358 L 431 358 L 429 356 L 428 356 L 427 354 L 417 344 L 416 342 Z M 440 288 L 457 288 L 461 293 L 463 293 L 464 294 L 466 294 L 467 295 L 468 295 L 471 298 L 471 300 L 472 300 L 476 304 L 477 304 L 483 310 L 483 320 L 478 324 L 478 326 L 476 329 L 473 329 L 472 328 L 472 322 L 471 321 L 471 317 L 470 316 L 470 313 L 469 312 L 468 309 L 466 307 L 465 304 L 464 304 L 462 302 L 461 302 L 460 301 L 458 301 L 457 300 L 453 300 L 452 299 L 447 299 L 446 300 L 441 300 L 440 301 L 437 301 L 436 302 L 429 305 L 413 321 L 413 322 L 405 330 L 405 331 L 404 332 L 403 335 L 401 337 L 401 338 L 400 339 L 397 346 L 392 351 L 392 352 L 390 355 L 390 364 L 389 365 L 389 384 L 388 385 L 388 390 L 389 391 L 391 391 L 394 394 L 395 397 L 399 402 L 400 405 L 401 405 L 402 406 L 402 407 L 421 426 L 422 426 L 423 427 L 423 428 L 426 429 L 430 433 L 430 435 L 440 445 L 440 446 L 441 446 L 444 449 L 445 449 L 446 450 L 448 450 L 449 451 L 452 451 L 472 430 L 472 428 L 473 427 L 480 427 L 481 428 L 485 428 L 487 430 L 487 435 L 486 436 L 486 437 L 485 438 L 484 438 L 481 441 L 478 442 L 469 450 L 469 451 L 467 453 L 467 454 L 464 459 L 464 461 L 462 463 L 462 464 L 458 468 L 458 470 L 456 472 L 456 473 L 450 484 L 445 483 L 441 480 L 441 479 L 440 478 L 440 476 L 439 475 L 439 474 L 440 473 L 440 470 L 438 468 L 438 467 L 436 465 L 436 464 L 433 461 L 432 458 L 430 456 L 430 455 L 428 453 L 428 452 L 425 449 L 425 448 L 421 444 L 421 443 L 406 428 L 405 428 L 377 400 L 377 399 L 375 397 L 375 396 L 371 389 L 371 363 L 373 360 L 373 358 L 372 357 L 372 353 L 373 352 L 373 351 L 376 348 L 377 348 L 383 341 L 383 339 L 386 335 L 386 333 L 388 331 L 388 329 L 395 322 L 395 321 L 417 300 L 417 299 L 421 295 L 422 295 L 425 293 L 430 292 L 433 290 L 436 290 L 437 289 L 439 289 Z M 535 293 L 536 292 L 537 292 L 539 290 L 541 290 L 543 288 L 549 288 L 550 287 L 553 287 L 554 288 L 556 288 L 557 289 L 558 289 L 560 291 L 561 291 L 565 295 L 566 295 L 569 298 L 569 299 L 571 301 L 571 302 L 574 305 L 574 315 L 573 316 L 572 316 L 571 315 L 569 315 L 568 314 L 565 314 L 564 313 L 561 312 L 559 310 L 556 309 L 552 305 L 552 302 L 534 302 L 533 301 L 533 298 L 535 296 Z M 483 246 L 485 248 L 482 253 L 482 255 L 481 256 L 481 257 L 479 259 L 479 260 L 477 262 L 476 262 L 476 263 L 473 268 L 473 272 L 472 273 L 472 276 L 473 277 L 473 284 L 472 285 L 463 285 L 461 283 L 461 281 L 460 280 L 460 278 L 459 277 L 459 269 L 458 268 L 458 264 L 459 263 L 459 259 L 463 255 L 464 255 L 466 253 L 467 253 L 468 252 L 469 252 L 470 251 L 471 251 L 476 248 L 478 248 L 479 247 L 481 247 L 482 246 Z M 333 274 L 340 270 L 342 270 L 343 269 L 346 268 L 348 266 L 352 266 L 353 267 L 354 267 L 356 265 L 357 265 L 364 258 L 365 258 L 367 256 L 368 256 L 370 254 L 371 254 L 379 246 L 380 246 L 384 242 L 385 242 L 396 231 L 396 230 L 409 218 L 411 213 L 415 209 L 416 209 L 417 208 L 419 208 L 425 202 L 426 202 L 430 198 L 456 198 L 459 200 L 464 201 L 466 203 L 467 203 L 469 205 L 470 205 L 471 206 L 472 209 L 474 209 L 475 210 L 478 210 L 479 211 L 482 211 L 485 213 L 487 213 L 489 215 L 489 216 L 491 219 L 491 221 L 492 221 L 494 223 L 496 223 L 498 225 L 501 226 L 508 233 L 509 233 L 510 234 L 510 235 L 509 236 L 511 236 L 513 238 L 514 238 L 517 240 L 517 241 L 518 242 L 518 243 L 520 245 L 521 248 L 526 254 L 526 255 L 529 258 L 529 265 L 530 266 L 530 281 L 529 282 L 529 285 L 526 288 L 524 293 L 519 299 L 519 300 L 510 309 L 508 309 L 507 310 L 494 310 L 491 308 L 491 302 L 492 301 L 500 301 L 501 300 L 503 300 L 504 299 L 505 299 L 513 291 L 513 290 L 515 287 L 515 269 L 514 268 L 514 265 L 513 264 L 513 263 L 511 261 L 511 260 L 509 258 L 509 257 L 491 238 L 490 238 L 487 235 L 482 233 L 480 231 L 479 231 L 478 230 L 475 229 L 473 227 L 472 227 L 470 225 L 470 224 L 469 223 L 467 223 L 466 222 L 461 222 L 460 221 L 456 221 L 455 220 L 437 220 L 436 221 L 433 221 L 432 222 L 429 222 L 428 223 L 427 223 L 426 224 L 425 224 L 424 225 L 417 228 L 415 230 L 414 230 L 370 274 L 370 275 L 371 276 L 371 280 L 372 281 L 372 284 L 380 293 L 381 293 L 383 295 L 385 295 L 388 298 L 388 301 L 389 302 L 389 313 L 388 314 L 385 314 L 384 315 L 381 315 L 380 314 L 380 309 L 379 309 L 376 306 L 375 306 L 374 305 L 372 305 L 371 304 L 371 303 L 366 297 L 363 297 L 360 294 L 357 293 L 353 289 L 350 288 L 348 286 L 345 285 L 343 283 L 341 283 L 339 281 L 336 280 L 333 277 Z M 546 161 L 548 163 L 548 170 L 549 171 L 549 173 L 551 176 L 551 178 L 552 180 L 555 183 L 555 184 L 561 189 L 561 196 L 563 198 L 564 198 L 615 249 L 618 255 L 618 257 L 619 258 L 619 261 L 620 262 L 620 283 L 619 284 L 619 288 L 617 289 L 617 291 L 616 292 L 616 295 L 609 309 L 607 311 L 605 315 L 600 320 L 600 321 L 597 324 L 595 324 L 594 325 L 594 326 L 592 328 L 592 330 L 590 332 L 590 334 L 581 344 L 576 346 L 573 349 L 570 350 L 567 353 L 565 354 L 563 354 L 562 355 L 555 355 L 555 357 L 554 358 L 533 358 L 532 357 L 525 357 L 524 356 L 525 359 L 527 361 L 531 369 L 531 389 L 530 390 L 529 389 L 521 398 L 517 400 L 514 400 L 511 402 L 506 402 L 505 401 L 506 394 L 512 388 L 512 386 L 514 384 L 515 384 L 515 381 L 516 380 L 516 362 L 517 360 L 520 357 L 520 355 L 512 340 L 512 337 L 511 336 L 511 325 L 514 323 L 516 324 L 516 327 L 517 328 L 517 334 L 519 338 L 528 345 L 530 345 L 531 346 L 554 346 L 555 344 L 563 340 L 566 337 L 569 336 L 579 327 L 580 325 L 580 323 L 586 315 L 587 313 L 587 311 L 589 309 L 589 307 L 594 299 L 594 297 L 596 294 L 596 289 L 597 288 L 597 280 L 598 279 L 598 260 L 597 259 L 597 257 L 596 256 L 596 254 L 595 252 L 592 249 L 590 248 L 590 244 L 582 236 L 581 236 L 573 229 L 570 228 L 568 226 L 564 224 L 547 207 L 546 204 L 543 201 L 541 200 L 538 200 L 538 202 L 536 204 L 531 205 L 530 208 L 528 209 L 520 217 L 518 217 L 517 218 L 513 218 L 511 219 L 510 218 L 505 218 L 503 216 L 503 211 L 504 210 L 507 210 L 510 207 L 511 207 L 511 206 L 513 205 L 521 197 L 522 195 L 522 192 L 523 191 L 523 189 L 524 187 L 531 180 L 531 178 L 533 176 L 533 174 L 535 170 L 535 164 L 537 161 Z M 210 129 L 184 170 L 155 190 L 140 218 L 128 231 L 123 256 L 108 265 L 105 278 L 98 282 L 89 303 L 76 316 L 66 341 L 63 363 L 74 367 L 77 374 L 64 384 L 58 404 L 42 411 L 41 519 L 52 522 L 52 581 L 61 596 L 72 644 L 77 646 L 79 654 L 89 665 L 93 683 L 102 694 L 102 702 L 107 703 L 115 715 L 126 713 L 127 690 L 112 656 L 111 641 L 103 633 L 103 619 L 92 620 L 89 566 L 82 563 L 82 473 L 87 471 L 86 439 L 95 393 L 107 362 L 109 340 L 124 315 L 129 284 L 138 282 L 158 248 L 219 177 L 263 147 L 269 147 L 281 133 L 301 126 L 315 116 L 326 114 L 349 99 L 408 85 L 413 79 L 469 78 L 486 70 L 549 72 L 553 76 L 568 76 L 599 85 L 622 86 L 626 92 L 641 92 L 646 101 L 663 103 L 684 112 L 719 133 L 734 132 L 736 141 L 760 152 L 773 173 L 811 205 L 818 218 L 836 234 L 839 245 L 855 261 L 869 292 L 876 297 L 885 323 L 898 343 L 906 367 L 907 389 L 914 397 L 919 423 L 922 474 L 920 584 L 914 585 L 910 591 L 909 614 L 905 615 L 898 634 L 895 655 L 886 664 L 887 679 L 868 700 L 866 710 L 850 737 L 849 745 L 864 746 L 864 756 L 858 761 L 848 761 L 847 750 L 843 748 L 828 767 L 831 797 L 848 782 L 860 780 L 886 736 L 889 723 L 910 687 L 913 672 L 923 666 L 929 612 L 945 591 L 949 544 L 958 538 L 958 428 L 946 423 L 943 391 L 923 328 L 919 326 L 916 302 L 912 299 L 909 285 L 903 274 L 889 265 L 869 241 L 866 230 L 836 191 L 830 177 L 758 116 L 750 99 L 736 87 L 735 91 L 724 93 L 722 99 L 715 99 L 713 91 L 705 91 L 696 79 L 682 77 L 676 70 L 653 69 L 629 62 L 626 56 L 606 54 L 601 48 L 562 43 L 399 42 L 396 48 L 380 51 L 378 57 L 357 58 L 345 62 L 343 66 L 315 66 L 299 80 L 289 84 L 283 95 L 261 96 L 249 108 L 244 108 L 236 119 Z" fill="#8B2F68" fill-rule="evenodd" clip-rule="evenodd"/>
</svg>
